STARTFONT 2.3
FONT -FontForge-Monoton-Book-R-Normal--18-180-72-72-P-121-ISO10646-1
SIZE 18 72 72  2
FONTBOUNDINGBOX 34 28 -3 -7
COMMENT "Generated by fontforge, http://fontforge.sourceforge.net"
COMMENT "Copyright (c) 2011 by vernon adams. All rights reserved."
STARTPROPERTIES 41
FOUNDRY "FontForge"
FAMILY_NAME "Monoton"
WEIGHT_NAME "Book"
SLANT "R"
SETWIDTH_NAME "Normal"
ADD_STYLE_NAME ""
PIXEL_SIZE 18
POINT_SIZE 180
RESOLUTION_X 72
RESOLUTION_Y 72
SPACING "P"
AVERAGE_WIDTH 121
CHARSET_REGISTRY "ISO10646"
CHARSET_ENCODING "1"
FONTNAME_REGISTRY ""
CHARSET_COLLECTIONS "ISO8859-2 ISO8859-9 ISO8859-4 ISO10646-1"
BITS_PER_PIXEL 2
FONT_NAME "Monoton-Regular"
FACE_NAME "Monoton"
COPYRIGHT "Copyright (c) 2011 by vernon adams. All rights reserved."
FONT_VERSION "1.000"
FONT_ASCENT 14
FONT_DESCENT 4
UNDERLINE_POSITION -1
UNDERLINE_THICKNESS 1
X_HEIGHT 12
CAP_HEIGHT 14
DEFAULT_CHAR 1
RAW_ASCENT 799
RAW_DESCENT 200
NORM_SPACE 2
RELATIVE_WEIGHT 40
RELATIVE_SETWIDTH 50
SUPERSCRIPT_X 0
SUPERSCRIPT_Y 6
SUPERSCRIPT_SIZE 10
SUBSCRIPT_X 0
SUBSCRIPT_Y 1
SUBSCRIPT_SIZE 10
AVG_LOWERCASE_WIDTH 130
AVG_UPPERCASE_WIDTH 142
ENDPROPERTIES
CHARS 372
STARTCHAR glyph1.dup1
ENCODING 0
SWIDTH 108 0
DWIDTH 2 0
BBX 1 1 0 0
BITMAP
00
ENDCHAR
STARTCHAR uni0002
ENCODING 2
SWIDTH 108 0
DWIDTH 2 0
BBX 1 1 0 0
BITMAP
00
ENDCHAR
STARTCHAR uni0009
ENCODING 9
SWIDTH 108 0
DWIDTH 2 0
BBX 1 1 0 0
BITMAP
00
ENDCHAR
STARTCHAR uni000A
ENCODING 10
SWIDTH 108 0
DWIDTH 2 0
BBX 1 1 0 0
BITMAP
00
ENDCHAR
STARTCHAR uni000D
ENCODING 13
SWIDTH 108 0
DWIDTH 2 0
BBX 1 1 0 0
BITMAP
00
ENDCHAR
STARTCHAR space
ENCODING 32
SWIDTH 108 0
DWIDTH 2 0
BBX 1 1 0 0
BITMAP
00
ENDCHAR
STARTCHAR exclam
ENCODING 33
SWIDTH 336 0
DWIDTH 6 0
BBX 6 16 0 -1
BITMAP
1540
5A50
5A50
5A50
5A50
5A50
5A50
5A50
5A50
5A50
5A50
0000
2A80
1540
1540
2A80
ENDCHAR
STARTCHAR quotedbl
ENCODING 34
SWIDTH 538 0
DWIDTH 10 0
BBX 9 6 0 9
BITMAP
150540
5A1680
5A1680
5A1680
5A1680
5A1680
ENDCHAR
STARTCHAR numbersign
ENCODING 35
SWIDTH 1014 0
DWIDTH 18 0
BBX 18 16 0 -1
BITMAP
000A505A00
000A509600
015695A550
0165956950
0669AA6990
06696A5A80
005A029400
009605A000
00A505A000
00A5096000
2A699A6A00
1659569500
1699669500
6696A5A800
05A0294000
09605A0000
ENDCHAR
STARTCHAR dollar
ENCODING 36
SWIDTH 686 0
DWIDTH 12 0
BBX 12 20 0 -3
BITMAP
005500
000000
02A6A4
09AA99
266A58
599550
5A5540
5A6540
299560
265698
09AA65
02A996
000256
01A996
16AA65
5A5598
195560
016940
005500
001500
ENDCHAR
STARTCHAR percent
ENCODING 37
SWIDTH 1504 0
DWIDTH 27 0
BBX 27 17 0 -2
BITMAP
029A4005400000
09A96016800000
26699425800000
59965829400000
5A59685A000000
5689685606AA00
5A66689619A990
25A994A5296660
1A9661689A5594
06558258A59A58
00650258A58A58
00000294966694
000005A059A9A0
00000960265660
00000950095680
00000A5001A400
00000100000000
ENDCHAR
STARTCHAR ampersand
ENCODING 38
SWIDTH 1029 0
DWIDTH 19 0
BBX 18 15 0 0
BITMAP
006AA15500
0655525A00
1A95525A00
25AAA25A00
5A6AA25A00
5A80025A00
5A6AAA5AA0
25A5565A60
2995565A50
5A55565A50
5A65565A50
2995556950
2655549550
096AA46690
01AAA40A90
ENDCHAR
STARTCHAR quotesingle
ENCODING 39
SWIDTH 257 0
DWIDTH 5 0
BBX 4 6 0 9
BITMAP
15
5A
5A
5A
5A
5A
ENDCHAR
STARTCHAR parenleft
ENCODING 40
SWIDTH 410 0
DWIDTH 7 0
BBX 7 17 0 -2
BITMAP
0294
09A8
2668
2994
5A64
5A80
5A80
5A80
5A80
5A80
5A80
5A50
2994
2668
09A8
0294
0014
ENDCHAR
STARTCHAR parenright
ENCODING 41
SWIDTH 408 0
DWIDTH 7 0
BBX 7 18 0 -2
BITMAP
1000
5A00
6990
6660
1694
1A58
0958
0958
0958
0958
0958
0958
1A58
5694
6560
6990
1A40
1000
ENDCHAR
STARTCHAR asterisk
ENCODING 42
SWIDTH 664 0
DWIDTH 12 0
BBX 12 11 0 2
BITMAP
005500
009600
0A96A0
199664
665699
0A7DA0
29AA64
5A55A5
169694
089620
009600
ENDCHAR
STARTCHAR plus
ENCODING 43
SWIDTH 601 0
DWIDTH 11 0
BBX 10 9 0 3
BITMAP
014500
025600
025600
6A56A0
6A56A0
165650
165650
025600
025600
ENDCHAR
STARTCHAR comma
ENCODING 44
SWIDTH 252 0
DWIDTH 5 0
BBX 4 6 0 -3
BITMAP
5A
5A
1A
26
19
14
ENDCHAR
STARTCHAR hyphen
ENCODING 45
SWIDTH 473 0
DWIDTH 9 0
BBX 7 4 1 5
BITMAP
AAA4
AAA4
5554
5554
ENDCHAR
STARTCHAR period
ENCODING 46
SWIDTH 255 0
DWIDTH 5 0
BBX 4 4 0 0
BITMAP
14
15
6A
6A
ENDCHAR
STARTCHAR slash
ENCODING 47
SWIDTH 447 0
DWIDTH 8 0
BBX 8 17 0 -2
BITMAP
0055
00A5
00A5
0168
0258
0294
0294
05A0
0960
0A50
0A40
1680
2580
2940
2900
5A00
5500
ENDCHAR
STARTCHAR zero
ENCODING 48
SWIDTH 843 0
DWIDTH 15 0
BBX 15 16 0 -1
BITMAP
0069A400
025AA640
099A9980
16655A60
29A965A0
1A601694
5A400A58
56800A58
5A800A58
5A500A54
29602694
259A9960
0A6AA650
06656980
01955900
001A9000
ENDCHAR
STARTCHAR one
ENCODING 49
SWIDTH 426 0
DWIDTH 8 0
BBX 7 15 0 0
BITMAP
6AA4
5554
5554
6AB8
0968
0968
0968
0968
0968
0968
0968
0968
0968
0968
0968
ENDCHAR
STARTCHAR two
ENCODING 50
SWIDTH 583 0
DWIDTH 11 0
BBX 10 15 0 0
BITMAP
696900
2AA980
1A9660
1559A0
1565A0
0025A0
005A60
00A580
025940
09A600
165800
259540
155540
6AAA80
6AAA80
ENDCHAR
STARTCHAR three
ENCODING 51
SWIDTH 612 0
DWIDTH 11 0
BBX 11 17 0 -1
BITMAP
004000
6A6A00
2AA980
16A660
155994
155694
015A94
015694
0169A0
02A960
02A694
000A54
1AA694
2AA9A0
255A50
555640
16A400
ENDCHAR
STARTCHAR four
ENCODING 52
SWIDTH 622 0
DWIDTH 11 0
BBX 11 15 0 0
BITMAP
004550
00A680
016980
025A40
059600
096500
165850
259460
696060
6AAAA4
555554
155554
5555A4
000060
000060
ENDCHAR
STARTCHAR five
ENCODING 53
SWIDTH 691 0
DWIDTH 12 0
BBX 12 16 0 -1
BITMAP
2AAAA4
155554
155554
3EAAA4
290000
296A40
295564
295598
295666
156A5A
00025A
01A996
16AA65
5A5698
1955A0
01A900
ENDCHAR
STARTCHAR six
ENCODING 54
SWIDTH 781 0
DWIDTH 14 0
BBX 14 16 0 -1
BITMAP
01A5A800
066AA640
165A5500
25955400
5A655000
5A5A9000
5A955A00
5A955980
5A996690
5A9A9950
5A502960
299A9A50
266AA680
09A56940
02955900
001A9000
ENDCHAR
STARTCHAR seven
ENCODING 55
SWIDTH 631 0
DWIDTH 11 0
BBX 11 15 0 0
BITMAP
6AA554
555A58
555A54
6AA694
0025A0
002960
002950
005A50
009680
00A580
00A540
016940
025A00
029600
029600
ENDCHAR
STARTCHAR eight
ENCODING 56
SWIDTH 808 0
DWIDTH 15 0
BBX 14 17 0 -1
BITMAP
00050000
02956900
09AAA580
266A9650
59955960
5A5565A0
5A6A65A0
29955A60
26556990
296AA660
5AAA99A0
5A8025A0
5A6AA9A0
25AAA660
1A955980
06555600
006AA400
ENDCHAR
STARTCHAR nine
ENCODING 57
SWIDTH 782 0
DWIDTH 14 0
BBX 14 16 0 -1
BITMAP
01A6A400
09AA9600
265A5940
59956680
56559A50
56916950
59956950
266A6950
09AA6950
01AA6950
00005A50
006A6680
05AA9980
1695A600
06556800
006A4000
ENDCHAR
STARTCHAR colon
ENCODING 58
SWIDTH 262 0
DWIDTH 5 0
BBX 3 9 1 2
BITMAP
A8
A4
54
54
00
A8
54
54
54
ENDCHAR
STARTCHAR semicolon
ENCODING 59
SWIDTH 261 0
DWIDTH 5 0
BBX 4 11 0 0
BITMAP
2A
29
15
15
00
15
5A
5A
0A
26
28
ENDCHAR
STARTCHAR less
ENCODING 60
SWIDTH 670 0
DWIDTH 12 0
BBX 12 13 0 1
BITMAP
000009
0001A5
006964
065A59
659695
2965A4
1A5900
569680
655A69
1969A4
01A595
000659
000068
ENDCHAR
STARTCHAR equal
ENCODING 61
SWIDTH 473 0
DWIDTH 9 0
BBX 7 9 1 2
BITMAP
AAA4
AAA4
5554
5554
0000
AAA4
5554
5554
5554
ENDCHAR
STARTCHAR greater
ENCODING 62
SWIDTH 670 0
DWIDTH 12 0
BBX 12 13 0 1
BITMAP
640000
164000
196900
25A590
669659
0A59A4
005A69
019699
29A5A5
1A6964
565A40
659000
290000
ENDCHAR
STARTCHAR question
ENCODING 63
SWIDTH 693 0
DWIDTH 12 0
BBX 12 15 0 0
BITMAP
0A9690
66AA64
19A969
055596
01565A
00065A
0A9596
0A9965
0A9A58
0A9A90
0A8000
054000
155000
1A9000
1A9000
ENDCHAR
STARTCHAR at
ENCODING 64
SWIDTH 1076 0
DWIDTH 19 0
BBX 19 18 0 -2
BITMAP
0006AA4000
0065656400
029955A600
0596569980
1A64542660
25865689A0
2949AA6254
5A2669A258
5A25829568
5A25829568
5A16669568
2989A65A58
2691A56A64
09A900A590
0666A90500
0196AA0000
002A550000
0000540000
ENDCHAR
STARTCHAR A
ENCODING 65
SWIDTH 936 0
DWIDTH 17 0
BBX 17 15 0 0
BITMAP
0005540000
0019A50000
0026960000
002A5A0000
0095694000
00A5A58000
0169965000
025A696000
029625A000
0965169400
0A599A5800
169AA96900
25A5559600
2965565A00
9A50016940
ENDCHAR
STARTCHAR B
ENCODING 66
SWIDTH 862 0
DWIDTH 16 0
BBX 15 15 0 0
BITMAP
2AAAA500
55555580
59555A60
5AAAA994
5A6AA658
5A500968
5A6AAA58
5A555994
5A555658
5A555968
5A555968
5A555698
5A5555A4
5A6AA990
5A6AAA40
ENDCHAR
STARTCHAR C
ENCODING 67
SWIDTH 852 0
DWIDTH 15 0
BBX 15 16 0 -1
BITMAP
002A6900
019AA990
0596A664
1A655654
25995980
29600100
5A400000
56800000
56800000
5A500000
29A40940
1666A660
099AA998
02695A60
00A55640
0006A400
ENDCHAR
STARTCHAR D
ENCODING 68
SWIDTH 886 0
DWIDTH 16 0
BBX 16 15 0 0
BITMAP
2AAA9400
55555640
59555990
5AAAA9A0
5A6AA698
5A500968
5A5005A5
5A5005A5
5A5005A5
5A500968
5A656658
5A555994
59555660
5AAAA580
6AAAA900
ENDCHAR
STARTCHAR E
ENCODING 69
SWIDTH 706 0
DWIDTH 13 0
BBX 12 15 0 0
BITMAP
156AAA
5A6555
5A6555
5A6AAA
5A5000
5A5000
5A6A40
5A6A40
5A6540
5A5540
5A5000
5A5555
5A6555
5A6AAA
5A6AAA
ENDCHAR
STARTCHAR F
ENCODING 70
SWIDTH 683 0
DWIDTH 12 0
BBX 12 15 0 0
BITMAP
156AA9
5A6555
5A6555
5A6AA9
5A5000
5A5000
5A5554
5A6554
5A6AA9
5A6AA9
5A5000
5A5000
5A5000
5A5000
5A5000
ENDCHAR
STARTCHAR G
ENCODING 71
SWIDTH 908 0
DWIDTH 16 0
BBX 16 16 0 -1
BITMAP
002A6900
019AA990
0596A664
1A655654
25995980
29600100
5A400000
56800155
56800296
5A500296
29A40296
2696AA96
099AAA96
02695A96
00A55696
0006A400
ENDCHAR
STARTCHAR H
ENCODING 72
SWIDTH 901 0
DWIDTH 16 0
BBX 16 15 0 0
BITMAP
15400155
5A5002A5
5A5002A5
5A5002A5
5A5002A5
5A5002A5
5A6AAAA5
5A6AAAA5
5A6556A5
5A5556A5
5A5002A5
5A5002A5
5A5002A5
5A5002A5
5A5002A5
ENDCHAR
STARTCHAR I
ENCODING 73
SWIDTH 338 0
DWIDTH 6 0
BBX 6 15 0 0
BITMAP
1540
5A50
5A50
5A50
5A50
5A50
5A50
5A50
5A50
5A50
5A50
5A50
5A50
5A50
5A50
ENDCHAR
STARTCHAR J
ENCODING 74
SWIDTH 434 0
DWIDTH 8 0
BBX 7 16 0 -1
BITMAP
0554
0568
0568
0568
0568
0568
0568
0568
0568
0568
0968
6658
6994
5660
5580
6900
ENDCHAR
STARTCHAR K
ENCODING 75
SWIDTH 815 0
DWIDTH 15 0
BBX 14 15 0 0
BITMAP
15401550
5A505960
5A509650
5A516580
5A525940
5A559600
5A596900
5A565800
5A5A6800
5A55A500
5A529A00
5A516980
5A50A680
5A505A60
5A5025A0
ENDCHAR
STARTCHAR L
ENCODING 76
SWIDTH 604 0
DWIDTH 11 0
BBX 11 15 0 0
BITMAP
154000
5A5000
5A5000
5A5000
5A5000
5A5000
5A5000
5A5000
5A5000
5A5000
5A5000
5A5550
5A6550
5A6AA4
5A6AA4
ENDCHAR
STARTCHAR M
ENCODING 77
SWIDTH 920 0
DWIDTH 17 0
BBX 16 15 0 0
BITMAP
14400051
7680016A
6A50029A
59A005A2
56980A66
5A682696
59A62996
5A5A5A56
5A29A656
5A669A56
5A596656
5A500256
5A500256
5A500256
5A500256
ENDCHAR
STARTCHAR N
ENCODING 78
SWIDTH 877 0
DWIDTH 16 0
BBX 15 15 0 0
BITMAP
14500554
76980568
59650568
55960568
5A698568
59A68568
5A596568
5A259968
5A5A5968
5A59A668
5A529A68
5A516598
5A509658
5A5069A8
5A50269C
ENDCHAR
STARTCHAR O
ENCODING 79
SWIDTH 933 0
DWIDTH 17 0
BBX 17 16 0 -1
BITMAP
002A6A0000
019AA99000
0596A66400
1A655A5800
259959A600
2960025A00
5A40016940
5680006940
5680016940
5A50025A00
29A4099600
1666A66500
099AA99800
02695A6000
00A5564000
0006A40000
ENDCHAR
STARTCHAR P
ENCODING 80
SWIDTH 850 0
DWIDTH 15 0
BBX 15 15 0 0
BITMAP
2AAAA400
55555640
59555A60
5AAAA9A0
5A6AA658
5A500958
5A501A58
5A555694
5A5AA560
5A5AA990
5A555A40
5A555000
5A500000
5A500000
5A500000
ENDCHAR
STARTCHAR Q
ENCODING 81
SWIDTH 937 0
DWIDTH 17 0
BBX 17 17 0 -2
BITMAP
002A6A0000
019AA99000
0596A66400
1A655A5800
259959A600
2960025A00
5A40016940
5680006940
5680096940
5A50665A00
29A4999600
1666A66500
099AA99800
02695A6000
00A5569800
0006A56400
0000008000
ENDCHAR
STARTCHAR R
ENCODING 82
SWIDTH 843 0
DWIDTH 15 0
BBX 15 15 0 0
BITMAP
2AAAA400
55555640
59555A50
5AAAA9A0
5A6AA654
5A500A58
5A5AAA58
5A555994
5A555660
5A6AA580
5A6AAA40
5A50A580
5A509680
5A505A50
5A502960
ENDCHAR
STARTCHAR S
ENCODING 83
SWIDTH 682 0
DWIDTH 12 0
BBX 12 16 0 -1
BITMAP
0296A4
19AA99
266A54
595550
5A9540
5A6540
5995A0
265698
09AA65
02A996
000296
01A996
16AA65
5A5698
1955A0
01A940
ENDCHAR
STARTCHAR T
ENCODING 84
SWIDTH 591 0
DWIDTH 11 0
BBX 10 15 0 0
BITMAP
6AAAA0
555550
555550
6BEAA0
029600
029600
029600
029600
029600
029600
029600
029600
029600
029600
029600
ENDCHAR
STARTCHAR U
ENCODING 85
SWIDTH 905 0
DWIDTH 16 0
BBX 16 16 0 -1
BITMAP
15400155
5A400296
5A400296
5A400296
5A400296
5A400296
5A400296
5A400296
5A500295
1A5006A5
29640965
2656A658
099AA5A4
06695990
00A55640
00069400
ENDCHAR
STARTCHAR V
ENCODING 86
SWIDTH 940 0
DWIDTH 17 0
BBX 17 15 0 0
BITMAP
5540005540
5A60025940
29A0029600
169405A500
0A58096800
09680A5800
05A5259400
029A296000
01695A5000
00A5968000
0095A58000
005A694000
0026960000
0025A50000
000D680000
ENDCHAR
STARTCHAR W
ENCODING 87
SWIDTH 1161 0
DWIDTH 21 0
BBX 21 15 0 0
BITMAP
554055405540
5A5169C16940
29515A925A00
29625A629600
25A29662A500
1699A5A9A500
0A596A9D6800
09595A5A5800
095A5D669400
059699A6A000
02A5A5A5A000
022962A96000
0169525A5000
01DA51968000
00D680D58000
ENDCHAR
STARTCHAR X
ENCODING 88
SWIDTH 876 0
DWIDTH 16 0
BBX 16 15 0 0
BITMAP
45101554
29A42594
16585960
0965A690
069A6980
02659600
00996500
00669800
0069A500
00965A00
01659980
029A5650
09A65960
16582698
25940A69
ENDCHAR
STARTCHAR Y
ENCODING 89
SWIDTH 789 0
DWIDTH 14 0
BBX 14 15 0 0
BITMAP
55401550
5A502A50
25605680
1694A540
09595A00
05A69500
02996800
016A5800
0096A000
00696000
002A5000
002A5000
002A5000
002A5000
002A5000
ENDCHAR
STARTCHAR Z
ENCODING 90
SWIDTH 854 0
DWIDTH 15 0
BBX 15 15 0 0
BITMAP
6AAAAAA4
15555564
15555594
6AAA9994
6AA86664
00026594
00199990
00996600
06666400
26598000
19995554
56655554
26455554
19AAAAA4
7AAAAAA4
ENDCHAR
STARTCHAR bracketleft
ENCODING 91
SWIDTH 320 0
DWIDTH 6 0
BBX 5 18 0 -2
BITMAP
1540
6540
5A80
5980
5A00
5A00
5A00
5A00
5A00
5A00
5A00
5A00
5A00
5A00
5980
5A80
6540
1540
ENDCHAR
STARTCHAR backslash
ENCODING 92
SWIDTH 448 0
DWIDTH 8 0
BBX 8 17 0 -2
BITMAP
5500
5A00
2940
2940
2580
1680
0A50
0A50
0960
05A0
0294
0294
0258
0168
00A5
00A5
0055
ENDCHAR
STARTCHAR bracketright
ENCODING 93
SWIDTH 319 0
DWIDTH 6 0
BBX 5 18 0 -2
BITMAP
1540
5580
6A80
6680
1680
1680
1680
1680
1680
1680
1680
1680
1680
1680
6680
6A80
5580
1540
ENDCHAR
STARTCHAR asciicircum
ENCODING 94
SWIDTH 475 0
DWIDTH 9 0
BBX 7 8 1 5
BITMAP
0940
1980
2280
2960
58A0
9494
A058
1014
ENDCHAR
STARTCHAR underscore
ENCODING 95
SWIDTH 511 0
DWIDTH 9 0
BBX 8 4 1 -4
BITMAP
AAA9
AAA9
5555
5554
ENDCHAR
STARTCHAR grave
ENCODING 96
SWIDTH 472 0
DWIDTH 9 0
BBX 7 4 1 13
BITMAP
6400
9640
1964
0190
ENDCHAR
STARTCHAR a
ENCODING 97
SWIDTH 832 0
DWIDTH 15 0
BBX 15 14 0 -1
BITMAP
006AA400
065A9600
09955980
26656650
29699960
5A5025A0
56801694
56801694
5A601694
259A9694
1A5A9694
066A9694
01A55694
00054000
ENDCHAR
STARTCHAR b
ENCODING 98
SWIDTH 720 0
DWIDTH 13 0
BBX 13 13 0 0
BITMAP
2AAA9000
55554900
59556600
5A559940
5A002940
5A6A9A00
5A6AB200
5A555A00
5A006940
5A156940
5A555A00
5A6A9900
5A6AA400
ENDCHAR
STARTCHAR c
ENCODING 99
SWIDTH 736 0
DWIDTH 13 0
BBX 13 15 0 -1
BITMAP
00054000
00A56800
066AA600
099A9940
26956500
29656000
5A500000
56800000
56800000
5A601000
259A9800
166AA600
09A56640
01955900
001A9000
ENDCHAR
STARTCHAR d
ENCODING 100
SWIDTH 833 0
DWIDTH 15 0
BBX 15 13 0 0
BITMAP
2AAA9000
55555A00
59556980
5AAAA650
5A6A99A0
5A502694
5A501694
5A501694
5A65A5A0
5A556A60
59555980
5AAAA640
6AAAA400
ENDCHAR
STARTCHAR e
ENCODING 101
SWIDTH 666 0
DWIDTH 12 0
BBX 12 13 0 0
BITMAP
156AA9
5A6554
5A6554
5A6AA8
5A5000
5A6AA8
5A6AA8
5A6554
5A5554
5A5554
5A6554
5A6AA9
5A6AA9
ENDCHAR
STARTCHAR f
ENCODING 102
SWIDTH 625 0
DWIDTH 11 0
BBX 11 13 0 0
BITMAP
156AA4
5A6554
5A6554
5A6AA4
5A5000
5A6AA0
5A6550
5A6550
5A6AA0
5A5000
5A5000
5A5000
5A5000
ENDCHAR
STARTCHAR g
ENCODING 103
SWIDTH 827 0
DWIDTH 15 0
BBX 14 15 0 -1
BITMAP
00054000
00A56800
066AA600
099A9940
26956500
29656000
5A500000
56800150
56801690
5A602690
259AA690
166AA690
09A56690
01956690
001A9000
ENDCHAR
STARTCHAR h
ENCODING 104
SWIDTH 830 0
DWIDTH 15 0
BBX 14 13 0 0
BITMAP
15401550
5A5016A0
5A5016A0
5A5016A0
5A5556A0
5A6566A0
5A6AA6A0
5A6AA6A0
5A5016A0
5A5016A0
5A5016A0
5A5016A0
5A5016A0
ENDCHAR
STARTCHAR i
ENCODING 105
SWIDTH 337 0
DWIDTH 6 0
BBX 6 13 0 0
BITMAP
1540
5A50
5A50
5A50
5A50
5A50
5A50
5A50
5A50
5A50
5A50
5A50
5A50
ENDCHAR
STARTCHAR j
ENCODING 106
SWIDTH 393 0
DWIDTH 7 0
BBX 7 15 0 -2
BITMAP
0554
0A94
0A94
0A94
0A94
0A94
0A94
0A94
0A94
1694
65A0
6960
5990
5640
6400
ENDCHAR
STARTCHAR k
ENCODING 107
SWIDTH 801 0
DWIDTH 14 0
BBX 14 13 0 0
BITMAP
15401550
5A505A50
5A50A680
5A526940
5A529600
5A596500
5A4A5800
5A5A6800
5A55A600
5A525A00
5A516580
5A509650
5A506960
ENDCHAR
STARTCHAR l
ENCODING 108
SWIDTH 583 0
DWIDTH 11 0
BBX 10 13 0 0
BITMAP
154000
5A5000
5A5000
5A5000
5A5000
5A5000
5A5000
5A5000
5A5000
5A5540
5A6550
5A6AA0
5A6AA0
ENDCHAR
STARTCHAR m
ENCODING 109
SWIDTH 1167 0
DWIDTH 21 0
BBX 21 14 0 0
BITMAP
001500150000
0195A6959000
09AA9AAA9800
266A6A6A6600
299569959A00
5A51A5D26940
5A4095816940
5A4095816940
5A4095816940
5A4095816940
5A4095816940
5A4095816940
5A4095816940
5A4095816940
ENDCHAR
STARTCHAR n
ENCODING 110
SWIDTH 787 0
DWIDTH 14 0
BBX 14 13 0 0
BITMAP
25500550
76980A50
59650A50
59960A50
5A594A50
59A68A50
5A9A6A50
5A29A650
5A165A50
5A096650
5A059650
5A026990
5A01A690
ENDCHAR
STARTCHAR o
ENCODING 111
SWIDTH 833 0
DWIDTH 15 0
BBX 15 15 0 -1
BITMAP
00054000
00A56800
066AA600
099A9980
26956660
296565A0
5A501694
56800A94
56801694
5A6025A0
259A9960
166AA690
09A56540
01955900
001A9000
ENDCHAR
STARTCHAR p
ENCODING 112
SWIDTH 781 0
DWIDTH 14 0
BBX 14 13 0 0
BITMAP
2AAAA000
55555A00
59555980
5AAAA680
5A6A9A50
5A556950
5A555A50
5A5A9980
5A5AA640
5A556900
5A554000
5A500000
5A500000
ENDCHAR
STARTCHAR q
ENCODING 113
SWIDTH 788 0
DWIDTH 14 0
BBX 14 15 0 -2
BITMAP
006AAA90
06555550
19955650
25AAAA50
596A9A50
56802A50
56802A50
5A6A6A50
29956A50
16556A50
0A6A6A50
01AA6A50
00002A50
00002A50
00001950
ENDCHAR
STARTCHAR r
ENCODING 114
SWIDTH 831 0
DWIDTH 15 0
BBX 15 13 0 0
BITMAP
2AAAA900
55555680
59555650
5AAAA9A0
5A6AA694
5A555A94
5A555594
5A5AA660
5A6AA990
5A5AAB00
5A51AA00
5A50A580
5A509680
ENDCHAR
STARTCHAR s
ENCODING 115
SWIDTH 683 0
DWIDTH 12 0
BBX 12 14 0 -1
BITMAP
02AA90
19AA59
265564
5A5590
5A0000
59AA90
26AA58
0A9565
005596
050096
15AA65
66AA98
1A55A0
005500
ENDCHAR
STARTCHAR t
ENCODING 116
SWIDTH 588 0
DWIDTH 11 0
BBX 10 13 0 0
BITMAP
6AAAA0
555550
555550
6AAAA0
029500
029500
029500
029500
029500
029500
029500
029500
029500
ENDCHAR
STARTCHAR u
ENCODING 117
SWIDTH 795 0
DWIDTH 14 0
BBX 14 14 0 -1
BITMAP
55401550
5A402960
5A402960
5A402960
5A402960
5A402960
5A402960
5A502960
2A605A50
259A6680
166A9980
09A56600
01956800
001A4000
ENDCHAR
STARTCHAR v
ENCODING 118
SWIDTH 855 0
DWIDTH 15 0
BBX 15 13 0 0
BITMAP
55400554
59600A58
25A02694
16942960
0A585A50
09689680
05A5A580
025A6940
01669A00
00A5A500
00996800
006A5800
00369400
ENDCHAR
STARTCHAR w
ENCODING 119
SWIDTH 1129 0
DWIDTH 20 0
BBX 20 14 0 -1
BITMAP
5540554155
5A40A94296
5A40A94296
5A40A94296
5A40A94296
5A40A94296
5A40A94296
5A40A94296
5A51698696
29999A65A5
266A66A998
09AA9AAA64
0295AA5690
0015005400
ENDCHAR
STARTCHAR x
ENCODING 120
SWIDTH 790 0
DWIDTH 14 0
BBX 14 13 0 0
BITMAP
55505510
25996680
16665940
09999600
025A6900
01659800
00996000
01A65400
02699800
05966600
0A659940
26996580
59A09660
ENDCHAR
STARTCHAR y
ENCODING 121
SWIDTH 733 0
DWIDTH 13 0
BBX 13 13 0 0
BITMAP
55405540
1A50A540
25A15A00
06569500
09656800
019A5400
0265A000
00A96000
009A8000
00568000
00568000
00568000
00568000
ENDCHAR
STARTCHAR z
ENCODING 122
SWIDTH 714 0
DWIDTH 13 0
BBX 13 13 0 0
BITMAP
2AA95500
15569940
1559A600
2AA66800
00259400
00996000
01A69000
02598000
05960000
0A655500
26995500
59A6AA00
566AAA00
ENDCHAR
STARTCHAR braceleft
ENCODING 123
SWIDTH 396 0
DWIDTH 7 0
BBX 7 20 0 -4
BITMAP
0010
0294
09A4
0A64
1680
1580
1580
1580
1580
6980
6600
5940
2580
1580
1580
1580
1694
0954
0654
01A4
ENDCHAR
STARTCHAR bar
ENCODING 124
SWIDTH 266 0
DWIDTH 5 0
BBX 4 17 0 -2
BITMAP
15
5A
5A
5A
5A
5A
5A
5A
5A
5A
5A
5A
5A
5A
5A
5A
1A
ENDCHAR
STARTCHAR braceright
ENCODING 125
SWIDTH 396 0
DWIDTH 7 0
BBX 7 20 0 -4
BITMAP
1000
5A00
6980
6650
0960
0960
0960
0960
0964
0694
0694
0964
0960
0960
0960
0960
5A50
5680
6640
6900
ENDCHAR
STARTCHAR asciitilde
ENCODING 126
SWIDTH 665 0
DWIDTH 12 0
BBX 12 4 0 10
BITMAP
015500
255525
5AAA98
58AAA4
ENDCHAR
STARTCHAR uni00A0
ENCODING 160
SWIDTH 108 0
DWIDTH 2 0
BBX 1 1 0 0
BITMAP
00
ENDCHAR
STARTCHAR exclamdown
ENCODING 161
SWIDTH 336 0
DWIDTH 6 0
BBX 6 16 0 -1
BITMAP
1540
5A50
5A50
5A50
5A50
5A50
5A50
5A50
5A50
5A50
5A50
0000
2A80
1540
1540
2A80
ENDCHAR
STARTCHAR cent
ENCODING 162
SWIDTH 708 0
DWIDTH 13 0
BBX 12 18 0 -2
BITMAP
001540
001540
006A90
065A59
099566
2665A4
296A90
5A5000
568000
5A5000
296690
26A564
099566
066A99
00AAA0
001540
001540
001500
ENDCHAR
STARTCHAR sterling
ENCODING 163
SWIDTH 689 0
DWIDTH 12 0
BBX 12 15 0 0
BITMAP
01A6A4
09AA96
266A58
299560
5A5540
5A4000
5A5AA0
5A5550
5A5550
5A5AA0
5A4000
5A5550
5A6550
5A6AA0
5A6AA0
ENDCHAR
STARTCHAR currency
ENCODING 164
SWIDTH 715 0
DWIDTH 13 0
BBX 13 14 0 0
BITMAP
04001000
16002500
59559A40
2695A500
09AA6800
09405800
16002800
16002400
06002800
09409800
0A6A6800
26A6A600
59445940
16002400
ENDCHAR
STARTCHAR yen
ENCODING 165
SWIDTH 796 0
DWIDTH 14 0
BBX 14 15 0 0
BITMAP
55401550
2A502950
25A05680
1694A580
09696A00
05A69600
0259A800
016A5800
0096A000
00696000
056A6500
056A6500
056A6500
002A5000
002A5000
ENDCHAR
STARTCHAR brokenbar
ENCODING 166
SWIDTH 263 0
DWIDTH 5 0
BBX 4 17 0 -2
BITMAP
15
5A
5A
5A
5A
5A
5A
15
00
00
5A
5A
5A
5A
5A
5A
5A
ENDCHAR
STARTCHAR section
ENCODING 167
SWIDTH 108 0
DWIDTH 2 0
BBX 1 1 0 0
BITMAP
00
ENDCHAR
STARTCHAR dieresis
ENCODING 168
SWIDTH 556 0
DWIDTH 10 0
BBX 10 3 0 13
BITMAP
000400
5A0A50
550550
ENDCHAR
STARTCHAR copyright
ENCODING 169
SWIDTH 869 0
DWIDTH 16 0
BBX 15 15 0 0
BITMAP
006EB800
02900740
09069090
18796D30
30D00518
6240000C
6240000C
6340000C
6240000C
31C00018
28741D34
0D1BE0A0
03800280
00BAA900
00054000
ENDCHAR
STARTCHAR ordfeminine
ENCODING 170
SWIDTH 833 0
DWIDTH 15 0
BBX 15 14 0 -1
BITMAP
006AA400
025A9600
09955980
26656660
29A999A0
5A501694
5A800694
5A400A94
29601A94
259A9A94
1A5A9A94
066A9A94
01A55A94
00054000
ENDCHAR
STARTCHAR guillemotleft
ENCODING 171
SWIDTH 911 0
DWIDTH 16 0
BBX 16 9 0 2
BITMAP
00190019
01950195
29652965
1A591A59
56905690
65596559
19691969
01A501A5
00050005
ENDCHAR
STARTCHAR logicalnot
ENCODING 172
SWIDTH 718 0
DWIDTH 13 0
BBX 11 6 1 4
BITMAP
AAAA54
5555A4
5555A4
AAAAA4
0000A4
0000A4
ENDCHAR
STARTCHAR registered
ENCODING 174
SWIDTH 869 0
DWIDTH 16 0
BBX 15 15 0 0
BITMAP
006EB800
02900740
09000090
183FE430
30301C18
6030090C
60301C0C
603FE40C
6030600C
30303018
28302834
0D1004A0
03800280
00BAA900
00054000
ENDCHAR
STARTCHAR degree
ENCODING 176
SWIDTH 330 0
DWIDTH 6 0
BBX 6 5 0 14
BITMAP
0500
2580
6590
6A90
1A40
ENDCHAR
STARTCHAR plusminus
ENCODING 177
SWIDTH 598 0
DWIDTH 11 0
BBX 10 12 0 0
BITMAP
014500
025600
025600
6A56A0
6A56A0
165650
165650
025600
025600
1AAA90
155550
155550
ENDCHAR
STARTCHAR uni00B2
ENCODING 178
SWIDTH 435 0
DWIDTH 8 0
BBX 8 12 0 3
BITMAP
1650
1558
2565
0029
0058
01A0
0290
0980
1600
1500
6AA4
6AA8
ENDCHAR
STARTCHAR uni00B3
ENCODING 179
SWIDTH 515 0
DWIDTH 9 0
BBX 9 13 0 2
BITMAP
165000
555800
256600
2A9A00
002940
06A900
069600
055940
056580
196580
155940
155A00
1AA400
ENDCHAR
STARTCHAR acute
ENCODING 180
SWIDTH 472 0
DWIDTH 9 0
BBX 7 4 1 13
BITMAP
00A0
0A64
A680
6800
ENDCHAR
STARTCHAR uni00B5
ENCODING 181
SWIDTH 802 0
DWIDTH 14 0
BBX 13 15 1 -2
BITMAP
55405540
69409580
69409580
69409580
69409580
69409580
69409580
69409580
6941A580
69AA5940
69AA6600
69559800
69556000
696A4000
69400000
ENDCHAR
STARTCHAR paragraph
ENCODING 182
SWIDTH 676 0
DWIDTH 12 0
BBX 12 15 0 -2
BITMAP
006AA9
0A5555
169565
29AAA5
5A69A5
5A96A5
5956A5
266AA5
19AAA5
0696A5
0016A5
0002A5
0002A5
0002A5
000299
ENDCHAR
STARTCHAR periodcentered
ENCODING 183
SWIDTH 260 0
DWIDTH 5 0
BBX 3 3 1 7
BITMAP
A4
A8
A8
ENDCHAR
STARTCHAR cedilla
ENCODING 184
SWIDTH 321 0
DWIDTH 6 0
BBX 4 6 1 -7
BITMAP
1A
96
A5
60
95
6A
ENDCHAR
STARTCHAR uni00B9
ENCODING 185
SWIDTH 359 0
DWIDTH 6 0
BBX 6 11 0 4
BITMAP
6A90
5550
1AA0
0960
0960
0960
0960
0960
0960
0960
0550
ENDCHAR
STARTCHAR ordmasculine
ENCODING 186
SWIDTH 835 0
DWIDTH 15 0
BBX 15 15 0 -1
BITMAP
00054000
00A56800
066AA640
099A9980
26555A60
296565A0
5A501694
56800A54
5A500A94
29602694
259A9960
1A6AA650
05656540
01955900
001A9000
ENDCHAR
STARTCHAR guillemotright
ENCODING 187
SWIDTH 912 0
DWIDTH 16 0
BBX 16 9 0 2
BITMAP
24002400
16801690
1A691A69
29652965
06950695
259A259A
19691969
1A401640
64002400
ENDCHAR
STARTCHAR onequarter
ENCODING 188
SWIDTH 1236 0
DWIDTH 22 0
BBX 22 17 0 -2
BITMAP
6A9005500000
55500A800000
5AA016800000
096025805600
09602940A500
09602A026800
09605A029800
09609609A040
0960A50A6280
0960A8165140
0551681AAA90
0002581AAAA0
0002941AAA90
0002A0000140
0005A0000280
000960000000
000550000000
ENDCHAR
STARTCHAR onehalf
ENCODING 189
SWIDTH 1154 0
DWIDTH 21 0
BBX 21 17 0 -2
BITMAP
6A9005500000
55500A800000
5AA016800000
096025815000
096029495A00
09602A0AAA40
09605A000A40
096096001600
0960A5006800
0960A800A400
055168026000
000258058000
000294050000
0002A01AA900
0005A01AA900
000960000000
000550000000
ENDCHAR
STARTCHAR threequarters
ENCODING 190
SWIDTH 1345 0
DWIDTH 24 0
BBX 24 17 0 -2
BITMAP
165000550000
555800960000
656600A50000
2A9A00A80950
002941681A50
06AA02582580
069602942940
055942A09A00
056585A0A628
196589615514
15594A51AAA9
155A0A81AAAA
1AA41681AAA9
000025800014
000029400028
00002A000000
000055000000
ENDCHAR
STARTCHAR questiondown
ENCODING 191
SWIDTH 693 0
DWIDTH 12 0
BBX 12 15 0 0
BITMAP
0A9690
66AA64
19A969
055596
01565A
00065A
0A9596
0A9965
0A9A58
0A9A90
0A8000
054000
155000
1A9000
1A9000
ENDCHAR
STARTCHAR Agrave
ENCODING 192
SWIDTH 936 0
DWIDTH 17 0
BBX 17 20 0 0
BITMAP
0090000000
0259000000
0065900000
0006400000
0000000000
0005540000
0019A50000
0026960000
002A5A0000
0095694000
00A5A58000
0169965000
025A696000
029625A000
0965169400
0A599A5800
169AA96900
25A5559600
2965565A00
9A50016940
ENDCHAR
STARTCHAR Aacute
ENCODING 193
SWIDTH 936 0
DWIDTH 17 0
BBX 17 20 0 0
BITMAP
0000018000
000019A000
00019A4000
0000A40000
0000000000
0005540000
0019A50000
0026960000
002A5A0000
0095694000
00A5A58000
0169965000
025A696000
029625A000
0965169400
0A599A5800
169AA96900
25A5559600
2965565A00
9A50016940
ENDCHAR
STARTCHAR Acircumflex
ENCODING 194
SWIDTH 936 0
DWIDTH 17 0
BBX 17 21 0 0
BITMAP
0002600000
0002A00000
0009940000
000A580000
0005140000
0000000000
0005540000
0019A50000
0026960000
002A5A0000
0095694000
00A5A58000
0169965000
025A696000
029625A000
0965169400
0A599A5800
169AA96900
25A5559600
2965565A00
9A50016940
ENDCHAR
STARTCHAR Atilde
ENCODING 195
SWIDTH 936 0
DWIDTH 17 0
BBX 17 20 0 0
BITMAP
0015541000
0195556000
026AA95000
028AAA8000
0000000000
0005540000
0019A50000
0026960000
002A5A0000
0095694000
00A5A58000
0169965000
025A696000
029625A000
0965169400
0A599A5800
169AA96900
25A5559600
2965565A00
9A50016940
ENDCHAR
STARTCHAR Adieresis
ENCODING 196
SWIDTH 936 0
DWIDTH 17 0
BBX 17 19 0 0
BITMAP
0000004000
00A5158000
0055154000
0000000000
0005540000
0019A50000
0026960000
002A5A0000
0095694000
00A5A58000
0169965000
025A696000
029625A000
0965169400
0A599A5800
169AA96900
25A5559600
2965565A00
9A50016940
ENDCHAR
STARTCHAR Aring
ENCODING 197
SWIDTH 936 0
DWIDTH 17 0
BBX 17 20 0 0
BITMAP
0001500000
0005540000
000A280000
000A580000
0006A00000
0005540000
0019A50000
0026960000
002A5A0000
0095694000
00A5A58000
0169965000
025A696000
029625A000
0965169400
0A599A5800
169AA96900
25A5559600
2965565A00
9A50016940
ENDCHAR
STARTCHAR AE
ENCODING 198
SWIDTH 1198 0
DWIDTH 22 0
BBX 21 15 0 0
BITMAP
000556AAAA80
0019A6555540
002296555540
002A5AAAAA80
009569400000
00A5A5800000
0169966AA900
025A696AA900
029625A55500
09A516995500
0A599A580000
169AA9695500
25A555965540
2965565AAA80
9A500169AA80
ENDCHAR
STARTCHAR Ccedilla
ENCODING 199
SWIDTH 852 0
DWIDTH 15 0
BBX 15 21 0 -6
BITMAP
002A6900
019AA990
0596A664
1A655654
25995980
29600100
5A400000
56800000
56800000
5A500000
29A40940
1666A660
099AA998
02695A60
00A55640
000BF400
00195000
00264000
00250000
00255000
00069000
ENDCHAR
STARTCHAR Egrave
ENCODING 200
SWIDTH 706 0
DWIDTH 13 0
BBX 12 20 0 0
BITMAP
190000
259000
065900
006400
000000
156AAA
5A6555
5A6555
5A6AAA
5A5000
5A5000
5A6A40
5A6A40
5A6540
5A5540
5A5000
5A5555
5A6555
5A6AAA
5A6AAA
ENDCHAR
STARTCHAR Eacute
ENCODING 201
SWIDTH 706 0
DWIDTH 13 0
BBX 12 20 0 0
BITMAP
000018
00019A
0019A4
000A40
000000
156AAA
5A6555
5A6555
5A6AAA
5A5000
5A5000
5A6A40
5A6A40
5A6540
5A5540
5A5000
5A5555
5A6555
5A6AAA
5A6AAA
ENDCHAR
STARTCHAR Ecircumflex
ENCODING 202
SWIDTH 706 0
DWIDTH 13 0
BBX 12 21 0 0
BITMAP
002500
006A00
009940
00A580
005140
000000
156AAA
5A6555
5A6555
5A6AAA
5A5000
5A5000
5A6A40
5A6A40
5A6540
5A5540
5A5000
5A5555
5A6555
5A6AAA
5A6AAA
ENDCHAR
STARTCHAR Edieresis
ENCODING 203
SWIDTH 706 0
DWIDTH 13 0
BBX 12 19 0 0
BITMAP
000004
0A5258
055154
000000
156AAA
5A6555
5A6555
5A6AAA
5A5000
5A5000
5A6A40
5A6A40
5A6540
5A5540
5A5000
5A5555
5A6555
5A6AAA
5A6AAA
ENDCHAR
STARTCHAR Igrave
ENCODING 204
SWIDTH 338 0
DWIDTH 6 0
BBX 9 20 -3 0
BITMAP
180000
669000
066800
006400
000000
005500
016940
016940
016940
016940
016940
016940
016940
016940
016940
016940
016940
016940
016940
016940
ENDCHAR
STARTCHAR Iacute
ENCODING 205
SWIDTH 338 0
DWIDTH 6 0
BBX 9 20 0 0
BITMAP
000900
00A640
0A6800
064000
000000
154000
5A5000
5A5000
5A5000
5A5000
5A5000
5A5000
5A5000
5A5000
5A5000
5A5000
5A5000
5A5000
5A5000
5A5000
ENDCHAR
STARTCHAR Icircumflex
ENCODING 206
SWIDTH 338 0
DWIDTH 6 0
BBX 6 21 0 0
BITMAP
0940
2980
2680
5A50
4410
0000
1540
5A50
5A50
5A50
5A50
5A50
5A50
5A50
5A50
5A50
5A50
5A50
5A50
5A50
5A50
ENDCHAR
STARTCHAR Idieresis
ENCODING 207
SWIDTH 338 0
DWIDTH 6 0
BBX 10 19 -2 0
BITMAP
000400
5A0A50
550550
000000
015400
05A500
05A500
05A500
05A500
05A500
05A500
05A500
05A500
05A500
05A500
05A500
05A500
05A500
05A500
ENDCHAR
STARTCHAR Eth
ENCODING 208
SWIDTH 905 0
DWIDTH 16 0
BBX 16 15 0 0
BITMAP
1AAAA400
25555640
29555A60
29AAA994
296AA668
255009A5
6AA80296
6AA80296
55540296
296405A5
29656968
29555A98
29555660
26AAA990
2AAAA900
ENDCHAR
STARTCHAR Ntilde
ENCODING 209
SWIDTH 877 0
DWIDTH 16 0
BBX 15 20 0 0
BITMAP
00555100
02555250
05AAA980
055AAA40
00000000
14500554
76980568
59650568
55960568
5A698568
59A68568
5A596568
5A259968
5A5A5968
5A59A668
5A529A68
5A516598
5A509658
5A5069A8
5A50269C
ENDCHAR
STARTCHAR Ograve
ENCODING 210
SWIDTH 933 0
DWIDTH 17 0
BBX 17 21 0 -1
BITMAP
0190000000
0259000000
0065900000
0006400000
0000000000
002A6A0000
019AA99000
0596A66400
1A655A5800
259959A600
2960025A00
5A40016940
5680006940
5680016940
5A50025A00
29A4099600
1666A66500
099AA99800
02695A6000
00A5564000
0006A40000
ENDCHAR
STARTCHAR Oacute
ENCODING 211
SWIDTH 933 0
DWIDTH 17 0
BBX 17 21 0 -1
BITMAP
0000018000
000019A000
00019A4000
0000A40000
0000400000
002A6A0000
019AA99000
0596A66400
1A655A5800
259959A600
2960025A00
5A40016940
5680006940
5680016940
5A50025A00
29A4099600
1666A66500
099AA99800
02695A6000
00A5564000
0006A40000
ENDCHAR
STARTCHAR Ocircumflex
ENCODING 212
SWIDTH 933 0
DWIDTH 17 0
BBX 17 22 0 -1
BITMAP
0002500000
0002A00000
0009940000
000A580000
0005140000
0000000000
002A6A0000
019AA99000
0596A66400
1A655A5800
259959A600
2960025A00
5A40016940
5680006940
5680016940
5A50025A00
29A4099600
1666A66500
099AA99800
02695A6000
00A5564000
0006A40000
ENDCHAR
STARTCHAR Otilde
ENCODING 213
SWIDTH 933 0
DWIDTH 17 0
BBX 17 21 0 -1
BITMAP
0015541000
0195556000
026AA95000
028AAA8000
0000000000
002A6A0000
019AA99000
0596A66400
1A655A5800
259959A600
2960025A00
5A40016940
5680006940
5680016940
5A50025A00
29A4099600
1666A66500
099AA99800
02695A6000
00A5564000
0006A40000
ENDCHAR
STARTCHAR Odieresis
ENCODING 214
SWIDTH 933 0
DWIDTH 17 0
BBX 17 20 0 -1
BITMAP
0000004000
00A5158000
0055154000
0000000000
002A6A0000
019AA99000
0596A66400
1A655A5800
259959A600
2960025A00
5A40016940
5680006940
5680016940
5A50025A00
29A4099600
1666A66500
099AA99800
02695A6000
00A5564000
0006A40000
ENDCHAR
STARTCHAR multiply
ENCODING 215
SWIDTH 790 0
DWIDTH 14 0
BBX 14 13 0 0
BITMAP
55505510
25996680
16665940
09999600
025A6900
01659800
00996000
01A65400
02699800
05966600
0A659940
26996580
59A09660
ENDCHAR
STARTCHAR Oslash
ENCODING 216
SWIDTH 938 0
DWIDTH 17 0
BBX 17 20 0 -3
BITMAP
0000024000
0000029400
002A6A6000
019AA99000
0996A66400
16655A5800
259959A600
1960025A00
5A80016940
5680006940
5680016940
5A50025A00
29A4099600
2666A66500
099AA99800
02695A6000
01A5564000
0596A40000
0660000000
0040000000
ENDCHAR
STARTCHAR Ugrave
ENCODING 217
SWIDTH 905 0
DWIDTH 16 0
BBX 16 21 0 -1
BITMAP
01900000
06690000
00659000
00064000
00000000
15400155
5A400296
5A400296
5A400296
5A400296
5A400296
5A400296
5A400296
5A500295
1A5006A5
29640965
2656A658
099AA5A4
06695990
00A55640
00069400
ENDCHAR
STARTCHAR Uacute
ENCODING 218
SWIDTH 905 0
DWIDTH 16 0
BBX 16 21 0 -1
BITMAP
00000280
00002990
00029A00
0001A000
00000000
15400155
5A400296
5A400296
5A400296
5A400296
5A400296
5A400296
5A400296
5A500295
1A5006A5
29640965
2656A658
099AA5A4
06695990
00A55640
00069400
ENDCHAR
STARTCHAR Ucircumflex
ENCODING 219
SWIDTH 905 0
DWIDTH 16 0
BBX 16 22 0 -1
BITMAP
00025000
00066000
0008A000
00169400
00110400
00000000
15400155
5A400296
5A400296
5A400296
5A400296
5A400296
5A400296
5A400296
5A500295
1A5006A5
29640965
2656A658
099AA5A4
06695990
00A55640
00069400
ENDCHAR
STARTCHAR Udieresis
ENCODING 220
SWIDTH 905 0
DWIDTH 16 0
BBX 16 20 0 -1
BITMAP
00001000
01682940
00541540
00000000
15400155
5A400296
5A400296
5A400296
5A400296
5A400296
5A400296
5A400296
5A500295
1A5006A5
29640965
2656A658
099AA5A4
06695990
00A55640
00069400
ENDCHAR
STARTCHAR Yacute
ENCODING 221
SWIDTH 789 0
DWIDTH 14 0
BBX 14 20 0 0
BITMAP
00000A00
0000A640
000A6800
00068000
00000000
55401550
5A502A50
25605680
1694A540
09595A00
05A69500
02996800
016A5800
0096A000
00696000
002A5000
002A5000
002A5000
002A5000
002A5000
ENDCHAR
STARTCHAR Thorn
ENCODING 222
SWIDTH 798 0
DWIDTH 14 0
BBX 14 16 0 -1
BITMAP
5A500000
5A6A5000
5A655800
5A656640
5A6A9980
5A6A9650
5A506960
5A502560
5A502960
5A5A9A50
5A556680
5A555940
5A6A9900
5A6AA000
5A500000
5A500000
ENDCHAR
STARTCHAR germandbls
ENCODING 223
SWIDTH 826 0
DWIDTH 15 0
BBX 15 18 0 -2
BITMAP
00054000
02A56900
09AAA580
266A9650
29955960
5A6565A0
5A5565A0
5A555960
5A5AAA50
5A5AA6A0
5A501694
5A556694
5A5559A0
5A555650
5A5AA580
5A5AA900
5A500000
05000000
ENDCHAR
STARTCHAR agrave
ENCODING 224
SWIDTH 832 0
DWIDTH 15 0
BBX 15 19 0 -1
BITMAP
06400000
19640000
01964000
00190000
00000000
006AA400
065A9600
09955980
26656650
29699960
5A5025A0
56801694
56801694
5A601694
259A9694
1A5A9694
066A9694
01A55694
00054000
ENDCHAR
STARTCHAR aacute
ENCODING 225
SWIDTH 832 0
DWIDTH 15 0
BBX 15 19 0 -1
BITMAP
00000600
0000A680
000A6800
00028000
00000000
006AA400
065A9600
09955980
26656650
29699960
5A5025A0
56801694
56801694
5A601694
259A9694
1A5A9694
066A9694
01A55694
00054000
ENDCHAR
STARTCHAR acircumflex
ENCODING 226
SWIDTH 832 0
DWIDTH 15 0
BBX 15 20 0 -1
BITMAP
00094000
00198000
00225000
00296000
00045000
00000000
006AA400
065A9600
09955980
26656650
29699960
5A5025A0
56801694
56801694
5A601694
259A9694
1A5A9694
066A9694
01A55694
00054000
ENDCHAR
STARTCHAR atilde
ENCODING 227
SWIDTH 832 0
DWIDTH 15 0
BBX 15 19 0 -1
BITMAP
00554040
06555580
09AAA540
062AA900
00000000
006AA400
065A9600
09955980
26656650
29699960
5A5025A0
56801694
56801694
5A601694
259A9694
1A5A9694
066A9694
01A55694
00054000
ENDCHAR
STARTCHAR adieresis
ENCODING 228
SWIDTH 832 0
DWIDTH 15 0
BBX 15 17 0 -1
BITMAP
02909600
01505500
00000000
006AA400
065A9600
09955980
26656650
29699960
5A5025A0
56801694
56801694
5A601694
259A9694
1A5A9694
066A9694
01A55694
00054000
ENDCHAR
STARTCHAR aring
ENCODING 229
SWIDTH 832 0
DWIDTH 15 0
BBX 15 20 0 -1
BITMAP
00054000
00255000
0028A000
00295000
001A8000
00000000
006AA400
065A9600
09955980
26656650
29699960
5A5025A0
56801694
56801694
5A601694
259A9694
1A5A9694
066A9694
01A55694
00054000
ENDCHAR
STARTCHAR ae
ENCODING 230
SWIDTH 1166 0
DWIDTH 21 0
BBX 21 14 0 -1
BITMAP
006AA55AAA40
065A96995500
099559995500
2665666AAA00
296999740000
5A5025AAAA00
5680169AAA00
568016995500
5A6016955500
259A96955500
1A5A96995500
066A969AAA40
01A5569AAA40
000540000000
ENDCHAR
STARTCHAR ccedilla
ENCODING 231
SWIDTH 736 0
DWIDTH 13 0
BBX 13 20 0 -6
BITMAP
00054000
00A56800
066AA600
099A9940
26956500
29656000
5A500000
56800000
56800000
5A601000
259A9800
166AA600
09A56640
01955900
002FD000
00654000
00990000
00940000
00554000
001A4000
ENDCHAR
STARTCHAR egrave
ENCODING 232
SWIDTH 666 0
DWIDTH 12 0
BBX 12 18 0 0
BITMAP
180000
669000
066800
006400
000000
156AA9
5A6554
5A6554
5A6AA8
5A5000
5A6AA8
5A6AA8
5A6554
5A5554
5A5554
5A6554
5A6AA9
5A6AA9
ENDCHAR
STARTCHAR eacute
ENCODING 233
SWIDTH 666 0
DWIDTH 12 0
BBX 12 18 0 0
BITMAP
000024
000299
0029A0
001900
000000
156AA9
5A6554
5A6554
5A6AA8
5A5000
5A6AA8
5A6AA8
5A6554
5A5554
5A5554
5A6554
5A6AA9
5A6AA9
ENDCHAR
STARTCHAR ecircumflex
ENCODING 234
SWIDTH 666 0
DWIDTH 12 0
BBX 12 19 0 0
BITMAP
002500
006600
009A00
016940
011040
000000
156AA9
5A6554
5A6554
5A6AA8
5A5000
5A6AA8
5A6AA8
5A6554
5A5554
5A5554
5A6554
5A6AA9
5A6AA9
ENDCHAR
STARTCHAR edieresis
ENCODING 235
SWIDTH 666 0
DWIDTH 12 0
BBX 12 17 0 0
BITMAP
000100
168294
054154
000000
156AA9
5A6554
5A6554
5A6AA8
5A5000
5A6AA8
5A6AA8
5A6554
5A5554
5A5554
5A6554
5A6AA9
5A6AA9
ENDCHAR
STARTCHAR igrave
ENCODING 236
SWIDTH 337 0
DWIDTH 6 0
BBX 9 18 -3 0
BITMAP
180000
669000
066800
006400
000000
005500
016940
016940
016940
016940
016940
016940
016940
016940
016940
016940
016940
016940
ENDCHAR
STARTCHAR iacute
ENCODING 237
SWIDTH 337 0
DWIDTH 6 0
BBX 9 18 0 0
BITMAP
000900
00A640
0A6800
064000
000000
154000
5A5000
5A5000
5A5000
5A5000
5A5000
5A5000
5A5000
5A5000
5A5000
5A5000
5A5000
5A5000
ENDCHAR
STARTCHAR icircumflex
ENCODING 238
SWIDTH 337 0
DWIDTH 6 0
BBX 6 19 0 0
BITMAP
0940
2980
2680
5A50
4410
0000
1540
5A50
5A50
5A50
5A50
5A50
5A50
5A50
5A50
5A50
5A50
5A50
5A50
ENDCHAR
STARTCHAR idieresis
ENCODING 239
SWIDTH 337 0
DWIDTH 6 0
BBX 10 17 -2 0
BITMAP
000400
5A0A50
550550
000000
015400
05A500
05A500
05A500
05A500
05A500
05A500
05A500
05A500
05A500
05A500
05A500
05A500
ENDCHAR
STARTCHAR eth
ENCODING 240
SWIDTH 783 0
DWIDTH 14 0
BBX 14 16 0 -1
BITMAP
02A5A400
19AA9500
066A5940
01556580
00559A50
00002A50
029A6A50
19AA6A50
256A6A50
5A556A50
96905A50
5A6A6680
29AA9980
1695A600
06556800
006A4000
ENDCHAR
STARTCHAR ntilde
ENCODING 241
SWIDTH 787 0
DWIDTH 14 0
BBX 14 18 0 0
BITMAP
00554000
0A554940
0AAAA600
162AA900
00000000
25500550
76980A50
59650A50
59960A50
5A594A50
59A68A50
5A9A6A50
5A29A650
5A165A50
5A096650
5A059650
5A026990
5A01A690
ENDCHAR
STARTCHAR ograve
ENCODING 242
SWIDTH 833 0
DWIDTH 15 0
BBX 15 19 0 -1
BITMAP
02400000
09640000
01964000
00190000
00054000
00A56800
066AA600
099A9980
26956660
296565A0
5A501694
56800A94
56801694
5A6025A0
259A9960
166AA690
09A56540
01955900
001A9000
ENDCHAR
STARTCHAR oacute
ENCODING 243
SWIDTH 833 0
DWIDTH 15 0
BBX 15 19 0 -1
BITMAP
00000600
00006580
00066900
00019000
00054000
00A56800
066AA600
099A9980
26956660
296565A0
5A501694
56800A94
56801694
5A6025A0
259A9960
166AA690
09A56540
01955900
001A9000
ENDCHAR
STARTCHAR ocircumflex
ENCODING 244
SWIDTH 833 0
DWIDTH 15 0
BBX 15 20 0 -1
BITMAP
00098000
000A8000
00265000
00296000
00145000
00054000
00A56800
066AA600
099A9980
26956660
296565A0
5A501694
56800A94
56801694
5A6025A0
259A9960
166AA690
09A56540
01955900
001A9000
ENDCHAR
STARTCHAR otilde
ENCODING 245
SWIDTH 833 0
DWIDTH 15 0
BBX 15 19 0 -1
BITMAP
00555040
06555580
09AAA540
0A1AAA00
00054000
00A56800
066AA600
099A9980
26956660
296565A0
5A501694
56800A94
56801694
5A6025A0
259A9960
166AA690
09A56540
01955900
001A9000
ENDCHAR
STARTCHAR odieresis
ENCODING 246
SWIDTH 833 0
DWIDTH 15 0
BBX 15 18 0 -1
BITMAP
00000100
02945600
01545500
00054000
00A56800
066AA600
099A9980
26956660
296565A0
5A501694
56800A94
56801694
5A6025A0
259A9960
166AA690
09A56540
01955900
001A9000
ENDCHAR
STARTCHAR divide
ENCODING 247
SWIDTH 260 0
DWIDTH 5 0
BBX 6 10 -1 1
BITMAP
1680
1680
1680
0000
6AA0
6AA0
0000
1680
1680
1680
ENDCHAR
STARTCHAR oslash
ENCODING 248
SWIDTH 832 0
DWIDTH 15 0
BBX 15 17 0 -2
BITMAP
00000400
00055600
00A56980
066AA640
099A9980
26956660
296565A0
5A501694
96800A94
56801694
5A6025A0
259A9960
166AA690
09A56640
09955900
065A9000
00400000
ENDCHAR
STARTCHAR ugrave
ENCODING 249
SWIDTH 795 0
DWIDTH 14 0
BBX 14 19 0 -1
BITMAP
06400000
19A40000
01964000
00190000
00000000
55401550
5A402960
5A402960
5A402960
5A402960
5A402960
5A402960
5A502960
2A605A50
259A6680
166A9980
09A56600
01956800
001A4000
ENDCHAR
STARTCHAR uacute
ENCODING 250
SWIDTH 795 0
DWIDTH 14 0
BBX 14 19 0 -1
BITMAP
00000A00
0000A680
000A6800
00068000
00000000
55401550
5A402960
5A402960
5A402960
5A402960
5A402960
5A402960
5A502960
2A605A50
259A6680
166A9980
09A56600
01956800
001A4000
ENDCHAR
STARTCHAR ucircumflex
ENCODING 251
SWIDTH 795 0
DWIDTH 14 0
BBX 14 20 0 -1
BITMAP
00094000
00198000
00228000
005A5000
00445000
00000000
55401550
5A402960
5A402960
5A402960
5A402960
5A402960
5A402960
5A502960
2A605A50
259A6680
166A9980
09A56600
01956800
001A4000
ENDCHAR
STARTCHAR udieresis
ENCODING 252
SWIDTH 795 0
DWIDTH 14 0
BBX 14 18 0 -1
BITMAP
00004000
01A09500
01505500
00000000
55401550
5A402960
5A402960
5A402960
5A402960
5A402960
5A402960
5A502960
2A605A50
259A6680
166A9980
09A56600
01956800
001A4000
ENDCHAR
STARTCHAR yacute
ENCODING 253
SWIDTH 733 0
DWIDTH 13 0
BBX 13 18 0 0
BITMAP
00001900
00019600
00196400
00064000
00000000
55405540
1A50A540
25A15A00
06569500
09656800
019A5400
0265A000
00A96000
009A8000
00568000
00568000
00568000
00568000
ENDCHAR
STARTCHAR thorn
ENCODING 254
SWIDTH 833 0
DWIDTH 15 0
BBX 15 17 0 -2
BITMAP
15400000
5A500000
5A500000
5A500000
5A4AA900
5A455580
5A455660
5A4559A0
5A4AA694
5A455A94
5A455994
5A4AA660
5A4AA980
5A4AAA00
5A500000
5A500000
1A500000
ENDCHAR
STARTCHAR ydieresis
ENCODING 255
SWIDTH 733 0
DWIDTH 13 0
BBX 13 17 0 0
BITMAP
00000400
09516800
05515400
00000000
55405540
1A50A540
25A15A00
06569500
09656800
019A5400
0265A000
00A96000
009A8000
00568000
00568000
00568000
00568000
ENDCHAR
STARTCHAR Amacron
ENCODING 256
SWIDTH 936 0
DWIDTH 17 0
BBX 17 15 0 0
BITMAP
0005540000
0019A50000
0026960000
002A5A0000
0095694000
00A5A58000
0169965000
025A696000
029625A000
0965169400
0A599A5800
169AA96900
25A5559600
2965565A00
9A50016940
ENDCHAR
STARTCHAR amacron
ENCODING 257
SWIDTH 832 0
DWIDTH 15 0
BBX 15 14 0 -1
BITMAP
006AA400
065A9600
09955980
26656650
29699960
5A5025A0
56801694
56801694
5A601694
259A9694
1A5A9694
066A9694
01A55694
00054000
ENDCHAR
STARTCHAR Abreve
ENCODING 258
SWIDTH 936 0
DWIDTH 17 0
BBX 17 18 0 0
BITMAP
000AA80000
0006600000
0000000000
0005540000
0019A50000
0026960000
002A5A0000
0095694000
00A5A58000
0169965000
025A696000
029625A000
0965169400
0A599A5800
169AA96900
25A5559600
2965565A00
9A50016940
ENDCHAR
STARTCHAR abreve
ENCODING 259
SWIDTH 832 0
DWIDTH 15 0
BBX 15 17 0 -1
BITMAP
006A6000
00198000
00000000
006AA400
065A9600
09955980
26656650
29699960
5A5025A0
56801694
56801694
5A601694
259A9694
1A5A9694
066A9694
01A55694
00054000
ENDCHAR
STARTCHAR Aogonek
ENCODING 260
SWIDTH 937 0
DWIDTH 17 0
BBX 17 20 0 -5
BITMAP
0005540000
0019A50000
0022960000
002A5A0000
0059698000
0096968000
01699A5000
025A696000
029625A000
05A5169800
0969996800
165AA9A500
25A5569600
2965565A00
5A56416940
0019000000
0026000000
0025400000
0025400000
0025400000
ENDCHAR
STARTCHAR aogonek
ENCODING 261
SWIDTH 832 0
DWIDTH 15 0
BBX 15 19 0 -6
BITMAP
006AA400
065A9600
09955980
26656650
29699960
5A5025A0
56801694
56801694
5A601694
259A9694
1A5A9694
066A9694
01A55694
001E4000
00540000
00980000
00A40000
00A50000
00A50000
ENDCHAR
STARTCHAR Cacute
ENCODING 262
SWIDTH 852 0
DWIDTH 15 0
BBX 15 21 0 -1
BITMAP
00000180
000019A0
00019A40
0000A400
00004000
002A6900
019AA990
0596A664
1A655654
25995980
29600100
5A400000
56800000
56800000
5A500000
29A40940
1666A660
099AA998
02695A60
00A55640
0006A400
ENDCHAR
STARTCHAR cacute
ENCODING 263
SWIDTH 736 0
DWIDTH 13 0
BBX 13 19 0 -1
BITMAP
00000600
00006580
00066900
00019000
00054000
00A56800
066AA600
099A9940
26956500
29656000
5A500000
56800000
56800000
5A601000
259A9800
166AA600
09A56640
01955900
001A9000
ENDCHAR
STARTCHAR Cdotaccent
ENCODING 266
SWIDTH 852 0
DWIDTH 15 0
BBX 15 21 0 -1
BITMAP
0002A000
00015000
00015000
0002A000
00000000
002A6900
019AA990
0596A664
1A655654
25995980
29600100
5A400000
56800000
56800000
5A500000
29A40940
1666A660
099AA998
02695A60
00A55640
0006A400
ENDCHAR
STARTCHAR cdotaccent
ENCODING 267
SWIDTH 736 0
DWIDTH 13 0
BBX 13 19 0 -1
BITMAP
000A8000
00054000
00054000
000A8000
00054000
00A56800
066AA600
099A9940
26956500
29656000
5A500000
56800000
56800000
5A601000
259A9800
166AA600
09A56640
01955900
001A9000
ENDCHAR
STARTCHAR Ccaron
ENCODING 268
SWIDTH 852 0
DWIDTH 15 0
BBX 15 22 0 -1
BITMAP
00061800
00099800
00059400
00026000
00011000
00000000
002A6900
019AA990
0596A664
1A655654
25995980
29600100
5A400000
56800000
56800000
5A500000
29A40940
1666A660
099AA998
02695A60
00A55640
0006A400
ENDCHAR
STARTCHAR ccaron
ENCODING 269
SWIDTH 736 0
DWIDTH 13 0
BBX 13 20 0 -1
BITMAP
0018A000
00256000
00165000
00098000
00044000
00054000
00A56800
066AA600
099A9940
26956500
29656000
5A500000
56800000
56800000
5A601000
259A9800
166AA600
09A56640
01955900
001A9000
ENDCHAR
STARTCHAR Dcaron
ENCODING 270
SWIDTH 886 0
DWIDTH 16 0
BBX 16 21 0 0
BITMAP
00155800
00099400
0009A000
00075000
00014000
00000000
2AAA9400
55555640
59555990
5AAAA9A0
5A6AA698
5A500968
5A5005A5
5A5005A5
5A5005A5
5A500968
5A656658
5A555994
59555660
5AAAA580
6AAAA900
ENDCHAR
STARTCHAR dcaron
ENCODING 271
SWIDTH 1084 0
DWIDTH 20 0
BBX 19 13 0 0
BITMAP
2AAA900168
55555A0168
5955698028
5AAAA65098
5A6A99A064
5A50269450
5A50169400
5A50169400
5A65A5A000
5A556A6000
5955598000
5AAAA64000
6AAAA40000
ENDCHAR
STARTCHAR Dcroat
ENCODING 272
SWIDTH 888 0
DWIDTH 16 0
BBX 17 15 -1 0
BITMAP
0AAAA50000
1555559000
1655566400
16AAAA6800
169AA9A600
1694025A00
8692416940
8692416940
5695416940
5695425A00
1699599600
1695566500
1655559800
16AAA96000
1AAAAA4000
ENDCHAR
STARTCHAR dcroat
ENCODING 273
SWIDTH 833 0
DWIDTH 15 0
BBX 16 13 -1 0
BITMAP
0AAAA400
15555680
16555A60
16AAA994
169AA668
469149A5
469145A5
969645A5
16996968
16955A98
16555660
16AAA990
1AAAA900
ENDCHAR
STARTCHAR Emacron
ENCODING 274
SWIDTH 706 0
DWIDTH 13 0
BBX 12 15 0 0
BITMAP
156AAA
5A6555
5A6555
5A6AAA
5A5000
5A5000
5A6A40
5A6A40
5A6540
5A5540
5A5000
5A5555
5A6555
5A6AAA
5A6AAA
ENDCHAR
STARTCHAR emacron
ENCODING 275
SWIDTH 666 0
DWIDTH 12 0
BBX 12 13 0 0
BITMAP
156AA9
5A6554
5A6554
5A6AA8
5A5000
5A6AA8
5A6AA8
5A6554
5A5554
5A5554
5A6554
5A6AA9
5A6AA9
ENDCHAR
STARTCHAR Ebreve
ENCODING 276
SWIDTH 706 0
DWIDTH 13 0
BBX 12 18 0 0
BITMAP
00A980
006600
000000
156AAA
5A6555
5A6555
5A6AAA
5A5000
5A5000
5A6A40
5A6A40
5A6540
5A5540
5A5000
5A5555
5A6555
5A6AAA
5A6AAA
ENDCHAR
STARTCHAR ebreve
ENCODING 277
SWIDTH 666 0
DWIDTH 12 0
BBX 12 16 0 0
BITMAP
016940
005500
000000
156AA9
5A6554
5A6554
5A6AA8
5A5000
5A6AA8
5A6AA8
5A6554
5A5554
5A5554
5A6554
5A6AA9
5A6AA9
ENDCHAR
STARTCHAR Edotaccent
ENCODING 278
SWIDTH 706 0
DWIDTH 13 0
BBX 12 19 0 0
BITMAP
002900
002A00
002A00
000000
156AAA
5A6555
5A6555
5A6AAA
5A5000
5A5000
5A6A40
5A6A40
5A6540
5A5540
5A5000
5A5555
5A6555
5A6AAA
5A6AAA
ENDCHAR
STARTCHAR edotaccent
ENCODING 279
SWIDTH 666 0
DWIDTH 12 0
BBX 12 17 0 0
BITMAP
006900
006900
006900
000000
156AA9
5A6554
5A6554
5A6AA8
5A5000
5A6AA8
5A6AA8
5A6554
5A5554
5A5554
5A6554
5A6AA9
5A6AA9
ENDCHAR
STARTCHAR Eogonek
ENCODING 280
SWIDTH 706 0
DWIDTH 13 0
BBX 12 20 0 -5
BITMAP
156AAA
5A6555
5A6555
5A6AAA
5A5000
5A5000
5A6A40
5A6A40
5A6540
5A5540
5A5000
5A5554
5A6555
5A6AAA
5A6AAF
000025
000019
000059
00005A
00005A
ENDCHAR
STARTCHAR eogonek
ENCODING 281
SWIDTH 666 0
DWIDTH 12 0
BBX 12 18 0 -5
BITMAP
156AA9
5A6554
5A6554
5A6AA8
5A5000
5A6AA8
5A6AA8
5A6554
5A5554
5A5554
5A6554
5A6AA9
5A6ABD
000054
000098
0000A4
0000A5
0000A5
ENDCHAR
STARTCHAR Ecaron
ENCODING 282
SWIDTH 706 0
DWIDTH 13 0
BBX 12 21 0 0
BITMAP
006180
009980
005940
002600
001100
000000
156AAA
5A6555
5A6555
5A6AAA
5A5000
5A5000
5A6A40
5A6A40
5A6540
5A5540
5A5000
5A5555
5A6555
5A6AAA
5A6AAA
ENDCHAR
STARTCHAR ecaron
ENCODING 283
SWIDTH 666 0
DWIDTH 12 0
BBX 12 19 0 0
BITMAP
015540
009940
009600
007500
001400
000000
156AA9
5A6554
5A6554
5A6AA8
5A5000
5A6AA8
5A6AA8
5A6554
5A5554
5A5554
5A6554
5A6AA9
5A6AA9
ENDCHAR
STARTCHAR Gbreve
ENCODING 286
SWIDTH 908 0
DWIDTH 16 0
BBX 16 19 0 -1
BITMAP
000A9800
00066000
00000000
002A6900
019AA990
0596A664
1A655654
25995980
29600100
5A400000
56800155
56800296
5A500296
29A40296
2696AA96
099AAA96
02695A96
00A55696
0006A400
ENDCHAR
STARTCHAR gbreve
ENCODING 287
SWIDTH 827 0
DWIDTH 15 0
BBX 14 17 0 -1
BITMAP
002AA000
00198000
00054000
00A56800
066AA600
099A9940
26956500
29656000
5A500000
56800150
56801690
5A602690
259AA690
166AA690
09A56690
01956690
001A9000
ENDCHAR
STARTCHAR Gdotaccent
ENCODING 288
SWIDTH 908 0
DWIDTH 16 0
BBX 16 21 0 -1
BITMAP
0002A000
00015000
00015000
0002A000
00000000
002A6900
019AA990
0596A664
1A655654
25995980
29600100
5A400000
56800155
56800296
5A500296
29A40296
2696AA96
099AAA96
02695A96
00A55696
0006A400
ENDCHAR
STARTCHAR gdotaccent
ENCODING 289
SWIDTH 827 0
DWIDTH 15 0
BBX 14 19 0 -1
BITMAP
000A8000
00054000
00054000
000A8000
00054000
00A56800
066AA600
099A9940
26956500
29656000
5A500000
56800150
56801690
5A602690
259AA690
166AA690
09A56690
01956690
001A9000
ENDCHAR
STARTCHAR Gcommaaccent
ENCODING 290
SWIDTH 908 0
DWIDTH 16 0
BBX 16 22 0 -7
BITMAP
002A6900
019AA990
0596A664
1A655654
25995980
29600100
5A400000
56800155
56800296
5A500296
29A40296
2696AA96
099AAA96
02695A96
00A55696
0006A400
00015000
0005A000
0005A000
0000A000
00026000
00028000
ENDCHAR
STARTCHAR gcommaaccent
ENCODING 291
SWIDTH 827 0
DWIDTH 15 0
BBX 14 15 0 -1
BITMAP
00054000
00A56800
066AA600
099A9940
26956500
29656000
5A500000
56800150
56801690
5A602690
259AA690
166AA690
09A56690
01956690
001A9000
ENDCHAR
STARTCHAR Hcircumflex
ENCODING 292
SWIDTH 901 0
DWIDTH 16 0
BBX 16 21 0 0
BITMAP
00025000
00066000
0008A000
00169400
00110400
00000000
15400155
5A5002A5
5A5002A5
5A5002A5
5A5002A5
5A5002A5
5A6AAAA5
5A6AAAA5
5A6556A5
5A5556A5
5A5002A5
5A5002A5
5A5002A5
5A5002A5
5A5002A5
ENDCHAR
STARTCHAR hcircumflex
ENCODING 293
SWIDTH 830 0
DWIDTH 15 0
BBX 14 19 0 0
BITMAP
00098000
000A8000
00165000
00296000
00145000
00000000
15401550
5A5016A0
5A5016A0
5A5016A0
5A5556A0
5A6566A0
5A6AA6A0
5A6AA6A0
5A5016A0
5A5016A0
5A5016A0
5A5016A0
5A5016A0
ENDCHAR
STARTCHAR Hbar
ENCODING 294
SWIDTH 901 0
DWIDTH 16 0
BBX 18 15 -1 0
BITMAP
0550005540
169400A940
4692A9A910
5696A9A990
169400A940
169400A940
169AAAA940
169AAAA940
169955A940
169555A940
169400A940
169400A940
169400A940
169400A940
169400A940
ENDCHAR
STARTCHAR hbar
ENCODING 295
SWIDTH 830 0
DWIDTH 15 0
BBX 16 13 -1 0
BITMAP
05500554
069155A8
069155A8
5696A9A9
169555A8
169959A8
169AA9A8
169AA9A8
169405A8
169405A8
169405A8
169405A8
169405A8
ENDCHAR
STARTCHAR Itilde
ENCODING 296
SWIDTH 338 0
DWIDTH 6 0
BBX 12 20 -3 0
BITMAP
015500
295525
2AAA98
58AAA4
000000
005500
016940
016940
016940
016940
016940
016940
016940
016940
016940
016940
016940
016940
016940
016940
ENDCHAR
STARTCHAR itilde
ENCODING 297
SWIDTH 337 0
DWIDTH 6 0
BBX 12 18 -3 0
BITMAP
015500
295525
2AAA98
58AAA4
000000
005500
016940
016940
016940
016940
016940
016940
016940
016940
016940
016940
016940
016940
ENDCHAR
STARTCHAR Imacron
ENCODING 298
SWIDTH 338 0
DWIDTH 6 0
BBX 6 15 0 0
BITMAP
1540
5A50
5A50
5A50
5A50
5A50
5A50
5A50
5A50
5A50
5A50
5A50
5A50
5A50
5A50
ENDCHAR
STARTCHAR imacron
ENCODING 299
SWIDTH 337 0
DWIDTH 6 0
BBX 6 13 0 0
BITMAP
1540
5A50
5A50
5A50
5A50
5A50
5A50
5A50
5A50
5A50
5A50
5A50
5A50
ENDCHAR
STARTCHAR Ibreve
ENCODING 300
SWIDTH 338 0
DWIDTH 6 0
BBX 6 18 0 0
BITMAP
5A50
1540
0000
1540
5A50
5A50
5A50
5A50
5A50
5A50
5A50
5A50
5A50
5A50
5A50
5A50
5A50
5A50
ENDCHAR
STARTCHAR ibreve
ENCODING 301
SWIDTH 337 0
DWIDTH 6 0
BBX 6 16 0 0
BITMAP
5A50
1540
0000
1540
5A50
5A50
5A50
5A50
5A50
5A50
5A50
5A50
5A50
5A50
5A50
5A50
ENDCHAR
STARTCHAR Iogonek
ENCODING 302
SWIDTH 338 0
DWIDTH 6 0
BBX 6 20 0 -5
BITMAP
1540
5A50
5A50
5A50
5A50
5A50
5A50
5A50
5A50
5A50
5A50
5A50
5A50
5A50
5BD0
0540
0940
0A40
0A50
0A50
ENDCHAR
STARTCHAR iogonek
ENCODING 303
SWIDTH 337 0
DWIDTH 6 0
BBX 6 18 0 -5
BITMAP
1540
5A50
5A50
5A50
5A50
5A50
5A50
5A50
5A50
5A50
5A50
5A50
5BD0
0540
0940
0A40
0A50
0A50
ENDCHAR
STARTCHAR Idotaccent
ENCODING 304
SWIDTH 338 0
DWIDTH 6 0
BBX 6 20 0 0
BITMAP
1A40
1540
1540
1A40
0000
1540
5A50
5A50
5A50
5A50
5A50
5A50
5A50
5A50
5A50
5A50
5A50
5A50
5A50
5A50
ENDCHAR
STARTCHAR dotlessi
ENCODING 305
SWIDTH 337 0
DWIDTH 6 0
BBX 6 13 0 0
BITMAP
1540
5A50
5A50
5A50
5A50
5A50
5A50
5A50
5A50
5A50
5A50
5A50
5A50
ENDCHAR
STARTCHAR IJ
ENCODING 306
SWIDTH 774 0
DWIDTH 14 0
BBX 13 16 0 -1
BITMAP
15405540
5A505A80
5A505A80
5A505A80
5A505A80
5A505A80
5A505A80
5A505A80
5A505A80
5A505A80
5A505680
5A566680
5A569940
5A556600
5A555800
00069000
ENDCHAR
STARTCHAR ij
ENCODING 307
SWIDTH 729 0
DWIDTH 13 0
BBX 13 15 0 -2
BITMAP
15505540
5A50A940
5A50A940
5A50A940
5A50A940
5A50A940
5A50A940
5A50A940
5A50A940
5A50A940
5A565940
5A569600
5A55A900
00056400
00068000
ENDCHAR
STARTCHAR Jcircumflex
ENCODING 308
SWIDTH 434 0
DWIDTH 8 0
BBX 8 22 0 -1
BITMAP
01A0
0294
0258
0968
0511
0000
0554
0568
0568
0568
0568
0568
0568
0568
0568
0568
0968
6658
6994
5660
5580
6900
ENDCHAR
STARTCHAR jcircumflex
ENCODING 309
SWIDTH 393 0
DWIDTH 7 0
BBX 7 21 0 -2
BITMAP
0250
0660
08A0
1694
1104
0000
0554
0A94
0A94
0A94
0A94
0A94
0A94
0A94
0A94
1694
65A0
6960
5990
5640
6400
ENDCHAR
STARTCHAR Kcommaaccent
ENCODING 310
SWIDTH 815 0
DWIDTH 15 0
BBX 14 22 0 -7
BITMAP
15401550
5A505960
5A509650
5A516580
5A525940
5A559600
5A596900
5A565800
5A5A6800
5A55A500
5A529A00
5A516980
5A50A680
5A505A60
5A5025A0
00000000
00054000
000A4000
00064000
00028000
00098000
000A4000
ENDCHAR
STARTCHAR kcommaaccent
ENCODING 311
SWIDTH 801 0
DWIDTH 14 0
BBX 14 20 0 -7
BITMAP
15401550
5A505A50
5A50A680
5A526940
5A529600
5A596500
5A4A5800
5A5A6800
5A55A600
5A525A00
5A516580
5A509650
5A506960
00000000
00054000
000A8000
00068000
00028000
00098000
000A0000
ENDCHAR
STARTCHAR kgreenlandic
ENCODING 312
SWIDTH 801 0
DWIDTH 14 0
BBX 14 13 0 0
BITMAP
15401550
5A505A50
5A50A680
5A526940
5A529600
5A596500
5A4A5800
5A5A6800
5A55A600
5A525A00
5A516580
5A509650
5A506960
ENDCHAR
STARTCHAR Lacute
ENCODING 313
SWIDTH 604 0
DWIDTH 11 0
BBX 11 20 0 0
BITMAP
000060
000658
006590
001900
000000
154000
5A5000
5A5000
5A5000
5A5000
5A5000
5A5000
5A5000
5A5000
5A5000
5A5000
5A5550
5A6550
5A6AA4
5A6AA4
ENDCHAR
STARTCHAR lacute
ENCODING 314
SWIDTH 583 0
DWIDTH 11 0
BBX 10 18 0 0
BITMAP
000900
00A640
0A6800
064000
000000
154000
5A5000
5A5000
5A5000
5A5000
5A5000
5A5000
5A5000
5A5000
5A5540
5A6550
5A6AA0
5A6AA0
ENDCHAR
STARTCHAR Lcommaaccent
ENCODING 315
SWIDTH 604 0
DWIDTH 11 0
BBX 11 22 0 -7
BITMAP
154000
5A5000
5A5000
5A5000
5A5000
5A5000
5A5000
5A5000
5A5000
5A5000
5A5000
5A5550
5A6550
5A6AA4
5A6AA4
000000
005400
00A400
00A400
002800
009800
00A400
ENDCHAR
STARTCHAR lcommaaccent
ENCODING 316
SWIDTH 583 0
DWIDTH 11 0
BBX 10 20 0 -7
BITMAP
154000
5A5000
5A5000
5A5000
5A5000
5A5000
5A5000
5A5000
5A5000
5A5540
5A6550
5A6AA0
5A6AA0
000000
005400
016800
006800
002800
009800
00A000
ENDCHAR
STARTCHAR Lcaron
ENCODING 317
SWIDTH 856 0
DWIDTH 15 0
BBX 15 15 0 0
BITMAP
15400168
5A500168
5A500068
5A500098
5A500064
5A500150
5A500000
5A500000
5A500000
5A500000
5A500000
5A555000
5A655000
5A6AA400
5A6AA400
ENDCHAR
STARTCHAR lcaron
ENCODING 318
SWIDTH 584 0
DWIDTH 11 0
BBX 10 13 0 0
BITMAP
155560
5A5560
5A5160
5A5660
5A5190
5A5500
5A5000
5A5000
5A5000
5A5540
5A6550
5A6AA0
5A6AA0
ENDCHAR
STARTCHAR Ldot
ENCODING 319
SWIDTH 604 0
DWIDTH 11 0
BBX 11 15 0 0
BITMAP
154000
5A5000
5A5000
5A5000
5A5000
5A5000
5A5690
5A5690
5A5690
5A5000
5A5000
5A5550
5A6550
5A6AA4
5A6AA4
ENDCHAR
STARTCHAR ldot
ENCODING 320
SWIDTH 582 0
DWIDTH 10 0
BBX 10 13 0 0
BITMAP
155000
5A5000
5A5000
5A5690
5A5690
5A5690
5A5000
5A5000
5A5000
5A5540
5A6550
5A6AA0
5A6AA0
ENDCHAR
STARTCHAR Lslash
ENCODING 321
SWIDTH 604 0
DWIDTH 11 0
BBX 12 15 -1 0
BITMAP
055000
169400
169400
169440
169240
169280
469590
469500
469400
969400
169400
169554
169954
169AA9
169AA9
ENDCHAR
STARTCHAR lslash
ENCODING 322
SWIDTH 581 0
DWIDTH 10 0
BBX 11 13 -1 0
BITMAP
055000
169400
169440
169240
169280
469590
469500
569400
969400
169550
169954
169AA8
169AA8
ENDCHAR
STARTCHAR Nacute
ENCODING 323
SWIDTH 877 0
DWIDTH 16 0
BBX 15 20 0 0
BITMAP
00000640
00006990
00065900
00019000
00000000
14500554
76980568
59650568
55960568
5A698568
59A68568
5A596568
5A259968
5A5A5968
5A59A668
5A529A68
5A516598
5A509658
5A5069A8
5A50269C
ENDCHAR
STARTCHAR nacute
ENCODING 324
SWIDTH 787 0
DWIDTH 14 0
BBX 14 18 0 0
BITMAP
00000900
0000A640
000A6800
00064000
00000000
25500550
76980A50
59650A50
59960A50
5A594A50
59A68A50
5A9A6A50
5A29A650
5A165A50
5A096650
5A059650
5A026990
5A01A690
ENDCHAR
STARTCHAR Ncommaaccent
ENCODING 325
SWIDTH 877 0
DWIDTH 16 0
BBX 15 22 0 -7
BITMAP
14500554
76980568
59650568
55960568
5A698568
59A68568
5A596568
5A259968
5A5A5968
5A59A668
5A529A68
5A516598
5A509658
5A5069A8
5A50269C
00000000
00055000
00095000
00095000
00025000
00059000
00064000
ENDCHAR
STARTCHAR ncommaaccent
ENCODING 326
SWIDTH 787 0
DWIDTH 14 0
BBX 14 20 0 -7
BITMAP
25500550
76980A50
59650A50
59960A50
5A594A50
59A68A50
5A9A6A50
5A29A650
5A165A50
5A096650
5A059650
5A026990
5A01A690
00000000
00154000
00258000
00158000
00058000
00154000
001A0000
ENDCHAR
STARTCHAR Ncaron
ENCODING 327
SWIDTH 877 0
DWIDTH 16 0
BBX 15 21 0 0
BITMAP
00255400
0015A000
00096000
000A5000
00014000
00000000
14500554
76980568
59650568
55960568
5A698568
59A68568
5A596568
5A259968
5A5A5968
5A59A668
5A529A68
5A516598
5A509658
5A5069A8
5A50269C
ENDCHAR
STARTCHAR ncaron
ENCODING 328
SWIDTH 787 0
DWIDTH 14 0
BBX 14 19 0 0
BITMAP
00556000
00265000
00268000
001D4000
00050000
00000000
25500550
76980A50
59650A50
59960A50
5A594A50
59A68A50
5A9A6A50
5A29A650
5A165A50
5A096650
5A059650
5A026990
5A01A690
ENDCHAR
STARTCHAR Eng
ENCODING 330
SWIDTH 874 0
DWIDTH 16 0
BBX 15 21 0 -6
BITMAP
14500554
76980968
59650968
569A0968
5A698968
59965968
5A596968
5A269968
5A5A6968
5A559968
5A525968
5A51A968
5A509968
5A502968
5A501968
00000968
00006658
00006994
00005660
00005680
00006900
ENDCHAR
STARTCHAR eng
ENCODING 331
SWIDTH 691 0
DWIDTH 12 0
BBX 12 18 0 -5
BITMAP
255055
769896
596596
599696
5A5996
59A696
5A9A96
5A2996
5A1696
5A0996
5A0596
5A0296
5A0096
000096
0001A5
000168
000264
000290
ENDCHAR
STARTCHAR Omacron
ENCODING 332
SWIDTH 933 0
DWIDTH 17 0
BBX 17 16 0 -1
BITMAP
002A6A0000
019AA99000
0596A66400
1A655A5800
259959A600
2960025A00
5A40016940
5680006940
5680016940
5A50025A00
29A4099600
1666A66500
099AA99800
02695A6000
00A5564000
0006A40000
ENDCHAR
STARTCHAR omacron
ENCODING 333
SWIDTH 833 0
DWIDTH 15 0
BBX 15 15 0 -1
BITMAP
00054000
00A56800
066AA600
099A9980
26956660
296565A0
5A501694
56800A94
56801694
5A6025A0
259A9960
166AA690
09A56540
01955900
001A9000
ENDCHAR
STARTCHAR Obreve
ENCODING 334
SWIDTH 933 0
DWIDTH 17 0
BBX 17 19 0 -1
BITMAP
000A980000
0006600000
0000000000
002A6A0000
019AA99000
0596A66400
1A655A5800
259959A600
2960025A00
5A40016940
5680006940
5680016940
5A50025A00
29A4099600
1666A66500
099AA99800
02695A6000
00A5564000
0006A40000
ENDCHAR
STARTCHAR obreve
ENCODING 335
SWIDTH 833 0
DWIDTH 15 0
BBX 15 17 0 -1
BITMAP
002AA000
00198000
00054000
00A56800
066AA600
099A9980
26956660
296565A0
5A501694
56800A94
56801694
5A6025A0
259A9960
166AA690
09A56540
01955900
001A9000
ENDCHAR
STARTCHAR Ohungarumlaut
ENCODING 336
SWIDTH 933 0
DWIDTH 17 0
BBX 18 21 0 -1
BITMAP
0000A00640
000A646590
00A6865900
0068019000
0000000000
002A6A0000
019AA99000
0596A66400
1A655A5800
259959A600
2960025A00
5A40016940
5680006940
5680016940
5A50025A00
29A4099600
1666A66500
099AA99800
02695A6000
00A5564000
0006A40000
ENDCHAR
STARTCHAR ohungarumlaut
ENCODING 337
SWIDTH 833 0
DWIDTH 15 0
BBX 17 19 0 -1
BITMAP
0002801900
0029A19640
029A196400
01A0064000
0005400000
00A5680000
066AA60000
099A998000
2695666000
296565A000
5A50169400
56800A9400
5680169400
5A6025A000
259A996000
166AA69000
09A5654000
0195590000
001A900000
ENDCHAR
STARTCHAR OE
ENCODING 338
SWIDTH 1317 0
DWIDTH 24 0
BBX 23 16 0 -1
BITMAP
002A6A15AAA8
019AA9A99554
0996A6699554
16655A69AAA8
259959A94000
196002694000
5A800169A900
56800169A900
568001699500
5A5002699500
29A409A94000
2666A6695554
099AA9A99554
02695A69AAA8
00A55669AAA8
0006A4000000
ENDCHAR
STARTCHAR oe
ENCODING 339
SWIDTH 1174 0
DWIDTH 21 0
BBX 21 15 0 -1
BITMAP
000500000000
00A5655AAA40
066AA6995540
099A8A995500
269566995540
296566940000
5A50169AAA00
56800A9AAA00
568016995500
5A2022995500
258A8A955500
162AA6995540
09A5669AAA40
01955A9AAA40
001A90000000
ENDCHAR
STARTCHAR Racute
ENCODING 340
SWIDTH 843 0
DWIDTH 15 0
BBX 15 20 0 0
BITMAP
0000A000
000A6400
00A68000
00680000
00000000
2AAAA400
55555640
59555A50
5AAAA9A0
5A6AA654
5A500A58
5A5AAA58
5A555994
5A555660
5A6AA580
5A6AAA40
5A50A580
5A509680
5A505A50
5A502960
ENDCHAR
STARTCHAR Rcommaaccent
ENCODING 342
SWIDTH 843 0
DWIDTH 15 0
BBX 15 22 0 -7
BITMAP
2AAAA400
55555640
59555A50
5AAAA9A0
5A6AA654
5A500A58
5A5AAA58
5A555994
5A555660
5A6AA580
5A6AAA40
5A50A580
5A509680
5A505A50
5A502960
00000000
00154000
00168000
00168000
00028000
00098000
000A0000
ENDCHAR
STARTCHAR rcommaaccent
ENCODING 343
SWIDTH 831 0
DWIDTH 15 0
BBX 15 20 0 -7
BITMAP
2AAAA900
55555680
59555650
5AAAA9A0
5A6AA694
5A555A94
5A555594
5A5AA660
5A6AA990
5A5AAB00
5A51AA00
5A50A580
5A509680
00000000
00154000
00258000
00158000
00058000
00154000
00190000
ENDCHAR
STARTCHAR Rcaron
ENCODING 344
SWIDTH 843 0
DWIDTH 15 0
BBX 15 21 0 0
BITMAP
05560000
02650000
02680000
01D80000
00500000
00000000
2AAAA400
55555640
59555A50
5AAAA9A0
5A6AA654
5A500A58
5A5AAA58
5A555994
5A555660
5A6AA580
5A6AAA40
5A50A580
5A509680
5A505A50
5A502960
ENDCHAR
STARTCHAR rcaron
ENCODING 345
SWIDTH 831 0
DWIDTH 15 0
BBX 15 19 0 0
BITMAP
00249000
00256000
00165000
000A8000
00054000
00000000
2AAAA900
55555680
59555650
5AAAA9A0
5A6AA694
5A555A94
5A555594
5A5AA660
5A6AA990
5A5AAB00
5A51AA00
5A50A580
5A509680
ENDCHAR
STARTCHAR Sacute
ENCODING 346
SWIDTH 682 0
DWIDTH 12 0
BBX 12 21 0 -1
BITMAP
000028
00029A
0029A0
000A00
000400
0296A4
19AA99
266A54
595550
5A9540
5A6540
5995A0
265698
09AA65
02A996
000296
01A996
16AA65
5A5698
1955A0
01A940
ENDCHAR
STARTCHAR sacute
ENCODING 347
SWIDTH 683 0
DWIDTH 12 0
BBX 12 19 0 -1
BITMAP
000028
00029A
0029A0
000A00
000000
02AA90
19AA59
265564
5A5590
5A0000
59AA90
26AA58
0A9565
005596
050096
15AA65
66AA98
1A55A0
005500
ENDCHAR
STARTCHAR Scircumflex
ENCODING 348
SWIDTH 682 0
DWIDTH 12 0
BBX 12 22 0 -1
BITMAP
002500
006600
008A00
016940
011040
000000
0296A4
19AA99
266A54
595550
5A9540
5A6540
5995A0
265698
09AA65
02A996
000296
01A996
16AA65
5A5698
1955A0
01A940
ENDCHAR
STARTCHAR scircumflex
ENCODING 349
SWIDTH 683 0
DWIDTH 12 0
BBX 12 20 0 -1
BITMAP
002500
006600
008A00
016940
011140
000000
02AA90
19AA59
265564
5A5590
5A0000
59AA90
26AA58
0A9565
005596
050096
15AA65
66AA98
1A55A0
005500
ENDCHAR
STARTCHAR Scedilla
ENCODING 350
SWIDTH 682 0
DWIDTH 12 0
BBX 12 21 0 -6
BITMAP
0296A4
19AA99
266A54
595550
5A9540
5A6540
5995A0
265698
09AA65
02A996
000296
01A996
16AA65
5A5698
1955A0
01BE40
025800
029400
029000
025800
00A800
ENDCHAR
STARTCHAR scedilla
ENCODING 351
SWIDTH 683 0
DWIDTH 12 0
BBX 12 19 0 -6
BITMAP
02AA90
19AA59
265564
5A5590
5A0000
59AA90
26AA58
0A9565
005596
050096
15AA65
66AA98
1A55A0
007900
025800
029400
029000
025800
00A800
ENDCHAR
STARTCHAR Scaron
ENCODING 352
SWIDTH 682 0
DWIDTH 12 0
BBX 12 22 0 -1
BITMAP
016580
009940
009A00
003600
001000
000000
0296A4
19AA99
266A54
595550
5A9540
5A6540
5995A0
265698
09AA65
02A996
000296
01A996
16AA65
5A5698
1955A0
01A940
ENDCHAR
STARTCHAR scaron
ENCODING 353
SWIDTH 683 0
DWIDTH 12 0
BBX 12 20 0 -1
BITMAP
016580
009940
009A00
003600
001000
000000
02AA90
19AA59
265564
5A5590
5A0000
59AA90
26AA58
0A9565
005596
050096
15AA65
66AA98
1A55A0
005500
ENDCHAR
STARTCHAR Tcommaaccent
ENCODING 354
SWIDTH 591 0
DWIDTH 11 0
BBX 10 21 0 -6
BITMAP
6AAAA0
555550
555550
6BEAA0
029600
029600
029600
029600
029600
029600
029600
029600
029600
029600
029600
019400
056400
099000
0A4000
096000
02A000
ENDCHAR
STARTCHAR tcommaaccent
ENCODING 355
SWIDTH 588 0
DWIDTH 11 0
BBX 10 19 0 -6
BITMAP
6AAAA0
555550
555550
6AAAA0
029500
029500
029500
029500
029500
029500
029500
029500
029500
019400
056400
099000
0A4000
096000
02A000
ENDCHAR
STARTCHAR Tcaron
ENCODING 356
SWIDTH 591 0
DWIDTH 11 0
BBX 10 21 0 0
BITMAP
059600
026500
026800
00D800
004400
000000
6AAAA0
555550
555550
6BEAA0
029600
029600
029600
029600
029600
029600
029600
029600
029600
029600
029600
ENDCHAR
STARTCHAR tcaron
ENCODING 357
SWIDTH 842 0
DWIDTH 15 0
BBX 15 13 0 0
BITMAP
6AAAA258
55555258
55555158
6AAAA194
02950160
02950140
02950000
02950000
02950000
02950000
02950000
02950000
02950000
ENDCHAR
STARTCHAR Tbar
ENCODING 358
SWIDTH 591 0
DWIDTH 11 0
BBX 10 15 0 0
BITMAP
6AAAA0
555550
555550
6BEAA0
029600
029600
6695A0
6695A0
169650
169650
029600
029600
029600
029600
029600
ENDCHAR
STARTCHAR tbar
ENCODING 359
SWIDTH 588 0
DWIDTH 11 0
BBX 10 13 0 0
BITMAP
6AAAA0
555550
555550
6AAAA0
029500
029500
669590
169550
169550
6696A0
029500
029500
029500
ENDCHAR
STARTCHAR Utilde
ENCODING 360
SWIDTH 905 0
DWIDTH 16 0
BBX 16 21 0 -1
BITMAP
00155000
02955250
026AA980
058AAA40
00000000
15400155
5A400296
5A400296
5A400296
5A400296
5A400296
5A400296
5A400296
5A500295
1A5006A5
29640965
2656A658
099AA5A4
06695990
00A55640
00069400
ENDCHAR
STARTCHAR utilde
ENCODING 361
SWIDTH 795 0
DWIDTH 14 0
BBX 14 19 0 -1
BITMAP
00554000
06554940
09AAA640
162AA900
00000000
55401550
5A402960
5A402960
5A402960
5A402960
5A402960
5A402960
5A502960
2A605A50
259A6680
166A9980
09A56600
01956800
001A4000
ENDCHAR
STARTCHAR Umacron
ENCODING 362
SWIDTH 905 0
DWIDTH 16 0
BBX 16 16 0 -1
BITMAP
15400155
5A400296
5A400296
5A400296
5A400296
5A400296
5A400296
5A400296
5A500295
1A5006A5
29640965
2656A658
099AA5A4
06695990
00A55640
00069400
ENDCHAR
STARTCHAR umacron
ENCODING 363
SWIDTH 795 0
DWIDTH 14 0
BBX 14 14 0 -1
BITMAP
55401550
5A402960
5A402960
5A402960
5A402960
5A402960
5A402960
5A502960
2A605A50
259A6680
166A9980
09A56600
01956800
001A4000
ENDCHAR
STARTCHAR Ubreve
ENCODING 364
SWIDTH 905 0
DWIDTH 16 0
BBX 16 19 0 -1
BITMAP
00169400
00055000
00000000
15400155
5A400296
5A400296
5A400296
5A400296
5A400296
5A400296
5A400296
5A500295
1A5006A5
29640965
2656A658
099AA5A4
06695990
00A55640
00069400
ENDCHAR
STARTCHAR ubreve
ENCODING 365
SWIDTH 795 0
DWIDTH 14 0
BBX 14 17 0 -1
BITMAP
005A5000
00194000
00000000
55401550
5A402960
5A402960
5A402960
5A402960
5A402960
5A402960
5A502960
2A605A50
259A6680
166A9980
09A56600
01956800
001A4000
ENDCHAR
STARTCHAR Uring
ENCODING 366
SWIDTH 905 0
DWIDTH 16 0
BBX 16 22 0 -1
BITMAP
00015000
00096000
00192400
000A9400
00069000
00000000
15400155
5A400296
5A400296
5A400296
5A400296
5A400296
5A400296
5A400296
5A500295
1A5006A5
29640965
2656A658
099AA5A4
06695990
00A55640
00069400
ENDCHAR
STARTCHAR uring
ENCODING 367
SWIDTH 795 0
DWIDTH 14 0
BBX 14 20 0 -1
BITMAP
00054000
00258000
00649000
00295000
001A8000
00000000
55401550
5A402960
5A402960
5A402960
5A402960
5A402960
5A402960
5A502960
2A605A50
259A6680
166A9980
09A56600
01956800
001A4000
ENDCHAR
STARTCHAR Uhungarumlaut
ENCODING 368
SWIDTH 905 0
DWIDTH 16 0
BBX 17 21 0 -1
BITMAP
0001900600
0019646680
0196466900
0064029000
0000000000
1540015500
5A40029600
5A40029600
5A40029600
5A40029600
5A40029600
5A40029600
5A40029600
5A50029500
1A5006A500
2964096500
2656A65800
099AA5A400
0669599000
00A5564000
0006940000
ENDCHAR
STARTCHAR uhungarumlaut
ENCODING 369
SWIDTH 795 0
DWIDTH 14 0
BBX 16 19 0 -1
BITMAP
00064018
00699196
065919A4
01900A40
00000000
55401550
5A402960
5A402960
5A402960
5A402960
5A402960
5A402960
5A502960
2A605A50
259A6680
166A9980
09A56600
01956800
001A4000
ENDCHAR
STARTCHAR Uogonek
ENCODING 370
SWIDTH 905 0
DWIDTH 16 0
BBX 16 21 0 -6
BITMAP
15400155
5A400296
5A400296
5A400296
5A400296
5A400296
5A400296
5A400296
5A500295
1A5006A5
29640965
2656A658
099AA5A4
06695990
00A55640
000BD400
00094000
00164000
00254000
00258000
00258000
ENDCHAR
STARTCHAR uogonek
ENCODING 371
SWIDTH 794 0
DWIDTH 14 0
BBX 14 19 0 -6
BITMAP
55401550
5A802960
5A802960
5A802960
5A802960
5A802960
5A802960
5A502960
5A605A50
299A6680
166A9980
09A5A600
02956800
002F4000
00650000
00980000
00950000
00960000
00960000
ENDCHAR
STARTCHAR Ycircumflex
ENCODING 374
SWIDTH 789 0
DWIDTH 14 0
BBX 14 21 0 0
BITMAP
00094000
00198000
00228000
005A5000
00441000
00000000
55401550
5A502A50
25605680
1694A540
09595A00
05A69500
02996800
016A5800
0096A000
00696000
002A5000
002A5000
002A5000
002A5000
002A5000
ENDCHAR
STARTCHAR ycircumflex
ENCODING 375
SWIDTH 733 0
DWIDTH 13 0
BBX 13 19 0 0
BITMAP
00160000
002A0000
00598000
00968000
00514000
00000000
55405540
1A50A540
25A15A00
06569500
09656800
019A5400
0265A000
00A96000
009A8000
00568000
00568000
00568000
00568000
ENDCHAR
STARTCHAR Ydieresis
ENCODING 376
SWIDTH 789 0
DWIDTH 14 0
BBX 14 19 0 0
BITMAP
00004000
05A0A500
01505500
00000000
55401550
5A502A50
25605680
1694A540
09595A00
05A69500
02996800
016A5800
0096A000
00696000
002A5000
002A5000
002A5000
002A5000
002A5000
ENDCHAR
STARTCHAR Zacute
ENCODING 377
SWIDTH 854 0
DWIDTH 15 0
BBX 15 20 0 0
BITMAP
00000640
00006590
00065900
00019000
00000000
6AAAAAA4
15555564
15555594
6AAA9994
6AA86664
00026594
00199990
00996600
06666400
26598000
19995554
56655554
26455554
19AAAAA4
7AAAAAA4
ENDCHAR
STARTCHAR zacute
ENCODING 378
SWIDTH 714 0
DWIDTH 13 0
BBX 13 18 0 0
BITMAP
00001800
00019600
00196400
00064000
00000000
2AA95500
15569940
1559A600
2AA66800
00259400
00996000
01A69000
02598000
05960000
0A655500
26995500
59A6AA00
566AAA00
ENDCHAR
STARTCHAR Zdotaccent
ENCODING 379
SWIDTH 854 0
DWIDTH 15 0
BBX 15 20 0 0
BITMAP
000A8000
00054000
00054000
000A8000
00000000
6AAAAAA4
15555564
15555594
6AAA9994
6AA86664
00026594
00199990
00996600
06666400
26598000
19995554
56655554
26455554
19AAAAA4
7AAAAAA4
ENDCHAR
STARTCHAR zdotaccent
ENCODING 380
SWIDTH 714 0
DWIDTH 13 0
BBX 13 18 0 0
BITMAP
002A0000
00150000
00150000
002A0000
00000000
2AA95500
15569940
1559A600
2AA66800
00259400
00996000
01A69000
02598000
05960000
0A655500
26995500
59A6AA00
566AAA00
ENDCHAR
STARTCHAR Zcaron
ENCODING 381
SWIDTH 854 0
DWIDTH 15 0
BBX 15 21 0 0
BITMAP
00249400
0025A000
000A5000
000A8000
00054000
00000000
6AAAAAA4
15555564
15555594
6AAA9994
6AA86664
00026594
00199990
00996600
06666400
26598000
19995554
56655554
26455554
19AAAAA4
7AAAAAA4
ENDCHAR
STARTCHAR zcaron
ENCODING 382
SWIDTH 714 0
DWIDTH 13 0
BBX 13 19 0 0
BITMAP
00A24000
00958000
00594000
002A0000
00110000
00000000
2AA95500
15569940
1559A600
2AA66800
00259400
00996000
01A69000
02598000
05960000
0A655500
26995500
59A6AA00
566AAA00
ENDCHAR
STARTCHAR florin
ENCODING 402
SWIDTH 388 0
DWIDTH 7 0
BBX 7 18 0 -2
BITMAP
0010
0290
09A4
0A64
0A80
1A80
5A90
5A94
5A94
0A80
0A80
0A80
0A80
0680
6680
6980
1A00
1000
ENDCHAR
STARTCHAR uni01C4
ENCODING 452
SWIDTH 1740 0
DWIDTH 31 0
BBX 31 21 0 0
BITMAP
0000000000249400
0000000000256000
00000000000A5000
00000000000A8000
0000000000054000
0000000000000000
2AAA94006AAAAAA4
5555564015555564
5955599015555594
5AAAA9606AAA9994
5A6AA6986AA86664
5A50096800026594
5A5005A500199990
5A5005A500996600
5A5005A506666400
5A50096826598000
5A65665819995554
5A55599456655554
5955566026455554
5AAAA58019AAAAA4
6AAAA9007AAAAAA4
ENDCHAR
STARTCHAR uni01C5
ENCODING 453
SWIDTH 1601 0
DWIDTH 29 0
BBX 29 19 0 0
BITMAP
0000000000628000
0000000000958000
0000000000594000
00000000002A0000
2AAA940000110000
5555564000000000
595559906AA91500
5AAAA96015569940
5A6AA6981559A600
5A5009682AA66800
5A5005A500259400
5A5005A500996000
5A5005A501A69000
5A50096802598000
5A65665809960000
5A5559940A655500
5955566026995500
5AAAA58059A6AA00
6AAAA900566AAA00
ENDCHAR
STARTCHAR Scommaaccent
ENCODING 536
SWIDTH 682 0
DWIDTH 12 0
BBX 12 22 0 -7
BITMAP
0296A4
19AA99
266A54
595550
5A9540
5A6540
5995A0
265698
09AA65
02A996
000296
01A996
16AA65
5A5698
1955A0
01A940
005500
009600
005600
001600
005500
006400
ENDCHAR
STARTCHAR scommaaccent
ENCODING 537
SWIDTH 683 0
DWIDTH 12 0
BBX 12 20 0 -7
BITMAP
02AA90
19AA59
265564
5A5590
5A0000
59AA90
26AA58
0A9565
005596
050096
15AA65
66AA98
1A55A0
005500
005500
009600
005600
001600
005500
006400
ENDCHAR
STARTCHAR uni021A
ENCODING 538
SWIDTH 591 0
DWIDTH 11 0
BBX 10 22 0 -7
BITMAP
6AAAA0
555550
555550
6BEAA0
029600
029600
029600
029600
029600
029600
029600
029600
029600
029600
029600
000000
015400
016800
016800
006800
019800
01A000
ENDCHAR
STARTCHAR uni021B
ENCODING 539
SWIDTH 588 0
DWIDTH 11 0
BBX 10 20 0 -7
BITMAP
6AAAA0
555550
555550
6AAAA0
029500
029500
029500
029500
029500
029500
029500
029500
029500
000000
015400
016800
016800
006800
019800
01A000
ENDCHAR
STARTCHAR uni0237
ENCODING 567
SWIDTH 393 0
DWIDTH 7 0
BBX 7 15 0 -2
BITMAP
0554
0A94
0A94
0A94
0A94
0A94
0A94
0A94
0A94
1694
65A0
6960
5990
5640
6400
ENDCHAR
STARTCHAR circumflex
ENCODING 710
SWIDTH 376 0
DWIDTH 7 0
BBX 5 5 1 13
BITMAP
2500
6A00
9940
A580
5140
ENDCHAR
STARTCHAR caron
ENCODING 711
SWIDTH 362 0
DWIDTH 7 0
BBX 6 5 0 13
BITMAP
5960
2650
2680
0D80
0440
ENDCHAR
STARTCHAR breve
ENCODING 728
SWIDTH 360 0
DWIDTH 7 0
BBX 6 2 0 14
BITMAP
6A60
1980
ENDCHAR
STARTCHAR dotaccent
ENCODING 729
SWIDTH 255 0
DWIDTH 5 0
BBX 4 4 0 11
BITMAP
2A
15
15
6A
ENDCHAR
STARTCHAR ring
ENCODING 730
SWIDTH 330 0
DWIDTH 6 0
BBX 6 5 0 14
BITMAP
0500
2580
6590
6A90
1A40
ENDCHAR
STARTCHAR ogonek
ENCODING 731
SWIDTH 250 0
DWIDTH 5 0
BBX 4 6 0 -5
BITMAP
05
25
59
59
5A
5A
ENDCHAR
STARTCHAR tilde
ENCODING 732
SWIDTH 665 0
DWIDTH 12 0
BBX 12 4 0 10
BITMAP
015500
255525
5AAA98
58AAA4
ENDCHAR
STARTCHAR hungarumlaut
ENCODING 733
SWIDTH 837 0
DWIDTH 15 0
BBX 14 4 1 13
BITMAP
00A00640
0A646590
A6865900
68019000
ENDCHAR
STARTCHAR uni0307
ENCODING 775
SWIDTH 260 0
DWIDTH 5 0
BBX 3 3 1 7
BITMAP
A4
A8
A8
ENDCHAR
STARTCHAR uni030F
ENCODING 783
SWIDTH 554 0
DWIDTH 10 0
BBX 8 7 1 13
BITMAP
1050
A094
9458
5828
2825
2516
0505
ENDCHAR
STARTCHAR uni0311
ENCODING 785
SWIDTH 375 0
DWIDTH 7 0
BBX 5 3 1 14
BITMAP
0400
6A40
6640
ENDCHAR
STARTCHAR uni0326
ENCODING 806
SWIDTH 274 0
DWIDTH 5 0
BBX 3 6 1 -7
BITMAP
54
A8
68
28
98
A0
ENDCHAR
STARTCHAR Omega
ENCODING 937
SWIDTH 92 0
DWIDTH 2 0
BBX 1 1 0 0
BITMAP
00
ENDCHAR
STARTCHAR uni00B5.dup2
ENCODING 956
SWIDTH 802 0
DWIDTH 14 0
BBX 13 15 1 -2
BITMAP
55405540
69409580
69409580
69409580
69409580
69409580
69409580
69409580
6941A580
69AA5940
69AA6600
69559800
69556000
696A4000
69400000
ENDCHAR
STARTCHAR pi
ENCODING 960
SWIDTH 92 0
DWIDTH 2 0
BBX 1 1 0 0
BITMAP
00
ENDCHAR
STARTCHAR endash
ENCODING 8211
SWIDTH 473 0
DWIDTH 9 0
BBX 7 4 1 5
BITMAP
AAA4
AAA4
5554
5554
ENDCHAR
STARTCHAR emdash
ENCODING 8212
SWIDTH 615 0
DWIDTH 11 0
BBX 10 4 1 5
BITMAP
AAAA90
AAAA90
555540
555540
ENDCHAR
STARTCHAR quoteleft
ENCODING 8216
SWIDTH 254 0
DWIDTH 5 0
BBX 4 6 0 9
BITMAP
05
25
59
59
5A
5A
ENDCHAR
STARTCHAR quoteright
ENCODING 8217
SWIDTH 251 0
DWIDTH 5 0
BBX 4 6 0 9
BITMAP
15
5A
5A
0A
66
28
ENDCHAR
STARTCHAR quotesinglbase
ENCODING 8218
SWIDTH 252 0
DWIDTH 5 0
BBX 4 6 0 -3
BITMAP
5A
5A
1A
26
19
14
ENDCHAR
STARTCHAR quotedblleft
ENCODING 8220
SWIDTH 535 0
DWIDTH 10 0
BBX 9 6 0 9
BITMAP
050140
250940
591640
591640
5A1680
5A1680
ENDCHAR
STARTCHAR quotedblright
ENCODING 8221
SWIDTH 532 0
DWIDTH 10 0
BBX 9 6 0 9
BITMAP
150540
5A1680
5A1680
0A0280
660980
280A40
ENDCHAR
STARTCHAR quotedblbase
ENCODING 8222
SWIDTH 533 0
DWIDTH 10 0
BBX 9 6 0 -3
BITMAP
5A1680
5A1680
1A0280
260980
190640
140500
ENDCHAR
STARTCHAR dagger
ENCODING 8224
SWIDTH 636 0
DWIDTH 11 0
BBX 11 15 0 0
BITMAP
015500
016A00
016A00
6A6AA8
566A54
566A54
6A6AA8
016A00
016A00
016A00
016A00
016A00
016A00
016A00
016A00
ENDCHAR
STARTCHAR daggerdbl
ENCODING 8225
SWIDTH 648 0
DWIDTH 12 0
BBX 11 15 0 0
BITMAP
005500
016900
016900
6A69A8
6A69A8
166954
166954
016900
016900
6A69A8
6A69A8
166954
156954
016900
016900
ENDCHAR
STARTCHAR bullet
ENCODING 8226
SWIDTH 501 0
DWIDTH 9 0
BBX 9 9 0 2
BITMAP
004000
0A6800
26A600
680940
580940
580940
266600
195900
019000
ENDCHAR
STARTCHAR ellipsis
ENCODING 8230
SWIDTH 676 0
DWIDTH 12 0
BBX 12 4 0 0
BITMAP
141414
155555
6A6969
6A6969
ENDCHAR
STARTCHAR perthousand
ENCODING 8240
SWIDTH 447 0
DWIDTH 8 0
BBX 8 17 0 -2
BITMAP
0055
00A5
00A5
0168
0258
0294
0294
05A0
0960
0A50
0A40
1680
2580
2940
2900
5A00
5500
ENDCHAR
STARTCHAR guilsinglleft
ENCODING 8249
SWIDTH 465 0
DWIDTH 8 0
BBX 8 9 0 2
BITMAP
0019
0195
2965
1A59
5690
6559
1969
01A5
0005
ENDCHAR
STARTCHAR guilsinglright
ENCODING 8250
SWIDTH 465 0
DWIDTH 8 0
BBX 8 9 0 2
BITMAP
2400
1680
1A69
2965
0695
259A
1969
1A40
6400
ENDCHAR
STARTCHAR fraction
ENCODING 8260
SWIDTH 447 0
DWIDTH 8 0
BBX 8 17 0 -2
BITMAP
0055
00A5
00A5
0168
0258
0294
0294
05A0
0960
0A50
0A40
1680
2580
2940
2900
5A00
5500
ENDCHAR
STARTCHAR uni2074
ENCODING 8308
SWIDTH 528 0
DWIDTH 10 0
BBX 9 12 0 3
BITMAP
011400
025800
05A400
096000
165000
258A00
594500
6AAA80
6AAA80
155540
155A40
000A00
ENDCHAR
STARTCHAR Euro
ENCODING 8364
SWIDTH 781 0
DWIDTH 14 0
BBX 14 16 0 -1
BITMAP
000A9A90
0066AA40
0199A940
025A5540
09A65540
0A580000
569AA400
16940000
669AA400
0A580000
09660000
0599AA40
0266AA40
009A5580
00195550
0001A940
ENDCHAR
STARTCHAR trademark
ENCODING 8482
SWIDTH 1503 0
DWIDTH 27 0
BBX 27 11 0 4
BITMAP
6AAAA114000450
155552A5000974
1555529A0016A4
6ABEA229802594
01680266805A94
0168025A60A694
01680259A26994
0168025A999A94
0168025969A294
01680258965294
016802585A8294
ENDCHAR
STARTCHAR partialdiff
ENCODING 8706
SWIDTH 108 0
DWIDTH 2 0
BBX 1 1 0 0
BITMAP
00
ENDCHAR
STARTCHAR uni2206
ENCODING 8710
SWIDTH 108 0
DWIDTH 2 0
BBX 1 1 0 0
BITMAP
00
ENDCHAR
STARTCHAR product
ENCODING 8719
SWIDTH 521 0
DWIDTH 9 0
BBX 9 13 0 0
BITMAP
025400
065800
09A500
169600
255A00
296940
5A2580
596580
259940
169600
0A6500
096800
059800
ENDCHAR
STARTCHAR summation
ENCODING 8721
SWIDTH 108 0
DWIDTH 2 0
BBX 1 1 0 0
BITMAP
00
ENDCHAR
STARTCHAR minus
ENCODING 8722
SWIDTH 555 0
DWIDTH 10 0
BBX 8 4 1 6
BITMAP
AAAA
5555
5555
AAAA
ENDCHAR
STARTCHAR radical
ENCODING 8730
SWIDTH 108 0
DWIDTH 2 0
BBX 1 1 0 0
BITMAP
00
ENDCHAR
STARTCHAR infinity
ENCODING 8734
SWIDTH 108 0
DWIDTH 2 0
BBX 1 1 0 0
BITMAP
00
ENDCHAR
STARTCHAR integral
ENCODING 8747
SWIDTH 362 0
DWIDTH 7 0
BBX 6 18 0 -2
BITMAP
0010
0290
09A0
1660
1680
1680
1680
1680
1680
1680
1680
1680
1680
1680
6580
6940
5900
1000
ENDCHAR
STARTCHAR approxequal
ENCODING 8776
SWIDTH 665 0
DWIDTH 12 0
BBX 12 9 0 5
BITMAP
015500
255525
5AAA98
58AAA4
000000
015500
255525
5AAA98
58AAA4
ENDCHAR
STARTCHAR notequal
ENCODING 8800
SWIDTH 473 0
DWIDTH 9 0
BBX 8 17 0 -2
BITMAP
0055
00A5
00A5
0168
2BFD
2BED
17F9
1AF5
0960
2FF9
2FE5
2BD5
3AD5
2940
2900
5A00
5500
ENDCHAR
STARTCHAR lessequal
ENCODING 8804
SWIDTH 108 0
DWIDTH 2 0
BBX 1 1 0 0
BITMAP
00
ENDCHAR
STARTCHAR greaterequal
ENCODING 8805
SWIDTH 108 0
DWIDTH 2 0
BBX 1 1 0 0
BITMAP
00
ENDCHAR
STARTCHAR lozenge
ENCODING 9674
SWIDTH 521 0
DWIDTH 9 0
BBX 9 13 0 0
BITMAP
025400
065800
09A500
169600
255A00
296940
5A2580
596580
259940
169600
0A6500
096800
059800
ENDCHAR
STARTCHAR uniF8FF
ENCODING 63743
SWIDTH 108 0
DWIDTH 2 0
BBX 1 1 0 0
BITMAP
00
ENDCHAR
STARTCHAR uniFB01
ENCODING 64257
SWIDTH 962 0
DWIDTH 17 0
BBX 17 13 0 0
BITMAP
156AA45540
5A6554A580
5A6554A580
5A6AA4A580
5A5000A580
5A6AA0A580
5A6550A580
5A6550A580
5A6AA0A580
5A5000A580
5A5000A580
5A5000A580
5A5000A580
ENDCHAR
STARTCHAR uniFB02
ENCODING 64258
SWIDTH 1208 0
DWIDTH 22 0
BBX 21 13 0 0
BITMAP
156AA4554000
5A6554A58000
5A6554A58000
5A6AA4A58000
5A5000A58000
5A6AA0A58000
5A6550A58000
5A6550A58000
5A6AA0A58000
5A5000A59540
5A5000A59540
5A5000A5AA80
5A5000A5AA80
ENDCHAR
STARTCHAR .notdef
ENCODING -1
SWIDTH 108 0
DWIDTH 2 0
BBX 1 1 0 0
BITMAP
00
ENDCHAR
ENDFONT
